<svg id="branding-small-bigger" xmlns="http://www.w3.org/2000/svg" viewBox="0 0 169.98 138.31">
  <title>branding-small-bigger</title>
  <g id="magellan">
    <g>
      <path d="M2.91,101.18c-1.41.06-1.68.27-1.68,1.78v10.26c0,1.5.27,1.72,1.68,1.78v.41c-.65,0-1.68-.06-2.63-.06s-2.08,0-2.65.06V115c1.41-.06,1.67-.27,1.67-1.78V102.15l-5,13.37H-6l-5.22-13.43V113c0,1.52.27,1.93,1.88,2v.41c-.5,0-1.41-.06-2.12-.06s-1.47,0-1.92.06V115c1.41-.06,1.68-.48,1.68-2V103c0-1.51-.27-1.72-1.68-1.78v-.41c.46,0,1.22.06,1.92.06s1.32,0,1.77-.06l4.56,12,4.45-11.94h1c1,0,2,0,2.63-.06Z" transform="translate(13.41 -9.87)" fill="#fff"/>
      <path d="M24.37,113.68c.42,1.05,1,1.3,1.44,1.32v.41c-.57,0-1.44-.06-2.23-.06-1.07,0-2.07,0-2.65.06V115c1,0,1.47-.19,1.47-.77a2.83,2.83,0,0,0-.24-1l-1.28-3.39h-5L15,112.06a4.89,4.89,0,0,0-.41,1.7c0,.9.62,1.21,1.8,1.24v.41c-.79,0-1.66-.06-2.39-.06a15.27,15.27,0,0,0-1.55.06V115c.54-.12,1.15-.56,1.63-1.8L19,100.67h.33Zm-6-10.4L16,109.46h4.7Z" transform="translate(13.41 -9.87)" fill="#fff"/>
      <path d="M45.83,101.82a.7.7,0,0,0,.41.21c.26,0,.44-.39.52-1.26h.48c-.06,1-.08,2.35-.08,4.76h-.48a6.4,6.4,0,0,0-1-3.06,4.66,4.66,0,0,0-3.58-1.62c-2.75,0-4.57,2.82-4.57,7.26,0,5,1.56,7.18,4.94,7.18a3.79,3.79,0,0,0,2.16-.65,1.12,1.12,0,0,0,.6-1.13v-2c0-1.68-.35-1.92-2.1-2v-.41c.73.05,2,.07,2.93.07s1.66,0,2.16-.07v.41c-.91.07-1.05.25-1.05,1.78v4.1H46.7c0-.48-.21-1.18-.57-1.18-.16,0-.26,0-.68.35a5.09,5.09,0,0,1-3.24,1.12c-4.29,0-6.79-2.76-6.79-7.36,0-4.83,2.81-7.87,6.67-7.87A5.75,5.75,0,0,1,45.83,101.82Z" transform="translate(13.41 -9.87)" fill="#fff"/>
      <path d="M69.34,115.42c-1.41-.06-3.36-.06-4.75-.06s-4,0-6,.06V115c1.41-.06,1.68-.27,1.68-1.78V103c0-1.51-.27-1.72-1.68-1.78v-.41c2,.06,4.77.06,6,.06s3,0,4.33-.06c-.1,1-.14,2-.14,2.44a11.15,11.15,0,0,0,.06,1.28h-.48c-.27-2.45-.59-3.25-2.78-3.25H63.86c-1.41,0-1.68.21-1.68,1.72v4.88h1.38c1.8,0,1.76-1.74,1.92-2.73H66c-.06.88-.07,1.48-.07,1.95s0,.69,0,1c0,.68,0,1.36.12,2.94h-.48c-.16-1.32-.18-2.74-2-2.74H62.18v5c0,1.5.27,1.72,1.68,1.72h1.52c2.59,0,3.11-.93,3.4-3.67h.48c0,.37-.06.92-.06,1.5S69.24,114.37,69.34,115.42Z" transform="translate(13.41 -9.87)" fill="#fff"/>
      <path d="M85.32,101.18c-1.41.06-1.68.27-1.68,1.78v10.26c0,1.5.27,1.72,1.68,1.72h1.52c2.59,0,3.11-1,3.4-3.87h.48c0,.43-.06,1-.06,1.7,0,.51,0,1.6.14,2.65-1.41-.06-3.36-.06-4.75-.06s-4,0-6,.06V115c1.41-.06,1.68-.27,1.68-1.78V103c0-1.51-.27-1.72-1.68-1.78v-.41c.58,0,1.58.06,2.65.06s2,0,2.63-.06v.41h0Z" transform="translate(13.41 -9.87)" fill="#fff"/>
      <path d="M106.34,101.18c-1.41.06-1.68.27-1.68,1.78v10.26c0,1.5.27,1.72,1.68,1.72h1.52c2.59,0,3.11-1,3.4-3.87h.48c0,.43-.06,1-.06,1.7,0,.51,0,1.6.14,2.65-1.41-.06-3.36-.06-4.75-.06s-4,0-6,.06V115c1.41-.06,1.68-.27,1.68-1.78V103c0-1.51-.27-1.72-1.68-1.78v-.41c.58,0,1.58.06,2.65.06s2,0,2.63-.06Z" transform="translate(13.41 -9.87)" fill="#fff"/>
      <path d="M133,113.68c.41,1.05,1,1.3,1.44,1.32v.41c-.57,0-1.44-.06-2.23-.06-1.07,0-2.07,0-2.65.06V115c1,0,1.47-.19,1.47-.77a2.84,2.84,0,0,0-.24-1l-1.28-3.39h-5l-.85,2.19a4.86,4.86,0,0,0-.41,1.7c0,.9.62,1.21,1.8,1.24v.41c-.79,0-1.66-.06-2.39-.06a15.27,15.27,0,0,0-1.55.06V115c.54-.12,1.15-.56,1.63-1.8l4.88-12.54h.33Zm-6-10.4-2.38,6.17h4.7Z" transform="translate(13.41 -9.87)" fill="#fff"/>
      <path d="M156.56,101.18c-1.41.06-1.68.47-1.68,2v12.35h-.48l-8.71-13.43V113c0,1.52.27,1.93,1.88,2v.41c-.5,0-1.41-.06-2.12-.06s-1.47,0-1.92.06V115c1.41-.06,1.68-.48,1.68-2V103c0-1.51-.27-1.72-1.68-1.78v-.41c.46,0,1.23.06,1.92.06s1.17,0,1.62-.06L154.41,112v-8.85c0-1.52-.26-1.93-1.88-2v-.41c.5,0,1.41.06,2.11.06s1.47,0,1.92-.06v.41h0Z" transform="translate(13.41 -9.87)" fill="#fff"/>
    </g>
  </g>
  <g id="media">
    <g>
      <path d="M47.39,137.67c-1,0-1.23.2-1.23,1.3v7.53c0,1.1.2,1.26,1.23,1.3v.3c-.48,0-1.23,0-1.93,0s-1.52,0-1.95,0v-.3c1,0,1.23-.2,1.23-1.3v-8.12l-3.66,9.8h-.25L37,138.34v8c0,1.11.2,1.41,1.38,1.46v.3c-.36,0-1,0-1.55,0s-1.08,0-1.41,0v-.3c1,0,1.23-.35,1.23-1.46V139c0-1.1-.2-1.26-1.23-1.3v-.3c.33,0,.9,0,1.41,0s1,0,1.3,0l3.34,8.8,3.27-8.76h.72c.7,0,1.46,0,1.93,0v.3Z" transform="translate(13.41 -9.87)" fill="#fff"/>
      <path d="M63,148.11c-1,0-2.47,0-3.48,0s-2.92,0-4.41,0v-.3c1,0,1.23-.2,1.23-1.3V139c0-1.1-.2-1.26-1.23-1.3v-.3c1.49,0,3.5,0,4.41,0s2.24,0,3.18,0c-.07.71-.1,1.44-.1,1.79a8.19,8.19,0,0,0,0,.94h-.35c-.2-1.79-.43-2.39-2-2.39H59c-1,0-1.23.16-1.23,1.26v3.58h1c1.32,0,1.29-1.27,1.41-2h.35c0,.65-.05,1.08-.05,1.43s0,.5,0,.73c0,.5,0,1,.09,2.16h-.35c-.12-1-.13-2-1.46-2h-1v3.65c0,1.1.2,1.26,1.23,1.26h1.11c1.9,0,2.28-.68,2.5-2.69H63c0,.27,0,.67,0,1.1S63,147.34,63,148.11Z" transform="translate(13.41 -9.87)" fill="#fff"/>
      <path d="M80.4,142.62c0,3.3-2,5.49-5.51,5.49-.46,0-1.48,0-2.13,0s-1.46,0-1.89,0v-.3c1,0,1.23-.2,1.23-1.3V139c0-1.1-.2-1.26-1.23-1.3v-.3c.35,0,.92.05,1.49.05h.37c.7,0,1.72,0,2.3,0C78.65,137.37,80.4,139.23,80.4,142.62Zm-6.88-3.67v7.59c0,1.06.2,1.3,1.14,1.3,3.31,0,4.21-1.85,4.21-5.16s-1.08-5-4.23-5C73.72,137.64,73.52,137.9,73.52,138.94Z" transform="translate(13.41 -9.87)" fill="#fff"/>
      <path d="M92.09,137.67c-1,0-1.23.2-1.23,1.3v7.53c0,1.1.2,1.26,1.23,1.3v.3c-.47,0-1.23,0-1.93,0s-1.52,0-1.95,0v-.3c1,0,1.23-.2,1.23-1.3V139c0-1.1-.2-1.26-1.23-1.3v-.3c.42,0,1.16,0,1.95,0s1.46,0,1.93,0Z" transform="translate(13.41 -9.87)" fill="#fff"/>
      <path d="M107.82,146.83c.3.77.74,1,1.05,1v.3c-.42,0-1.05,0-1.64,0-.79,0-1.52,0-1.95,0v-.3c.74,0,1.08-.14,1.08-.56a2.08,2.08,0,0,0-.18-.71l-.94-2.49h-3.67l-.62,1.61a3.56,3.56,0,0,0-.3,1.24c0,.66.45.89,1.32.91v.3c-.58,0-1.22,0-1.75,0a11.22,11.22,0,0,0-1.14,0v-.3c.39-.09.85-.41,1.2-1.32l3.58-9.19h.25Zm-4.38-7.62-1.75,4.53h3.45Z" transform="translate(13.41 -9.87)" fill="#fff"/>
    </g>
  </g>
  <g id="MLL">
    <path d="M121,74.35c-6.62-.28-7.91-1.24-7.91-8.1V19.5c0-6.86,1.29-7.82,7.91-8.1l-.29-1.51H70.18c-5.93,0-14.54,0-20.28,0s-19.12,0-28,0l-.29,1.59c6.62.28,7.91,1.24,7.91,8.1V66.33c0,6.86-1.29,7.82-7.91,8.1l-.47,1.72c2.72,0,7.78,0,12.83,0,4.48,0,9.8,0,12.83,0l-.32-1.72c-6.62-.28-7.91-1.24-7.91-8.1V19.58c0-6.86,1.29-7.82,7.91-7.82h7.14C65.81,11.76,68,15.92,69.43,29H73.2C74.58,15.92,76.82,11.68,89,11.68h7.15c6.62,0,7.91,1,7.91,7.82V66.25c0,6.86-1.29,7.82-7.91,8.1l-.32,1.8c3,0,8.35,0,12.83,0,5,0,10.09,0,12.83,0Z" transform="translate(13.41 -9.87)" fill="#fff"/>
  </g>
</svg>
