<svg id="crown" xmlns="http://www.w3.org/2000/svg" viewBox="0 0 167.55 136.89">
  <title>crown</title>
  <path id="crown-bottom" d="M134.07,131.49H33.49a2.7,2.7,0,1,0,0,5.4H134.07a2.7,2.7,0,1,0,0-5.4Z"/>
  <path id="crown-shape" d="M166.47,32.31a2.7,2.7,0,0,0-3.19,0l-43.46,31a2.69,2.69,0,0,0-.95,3.18,8.77,8.77,0,1,1-8.63-5.51,2.74,2.74,0,0,0,2.18-1.32,2.7,2.7,0,0,0,.12-2.54L86.21,1.54a2.71,2.71,0,0,0-4.88,0L55,57.1a2.7,2.7,0,0,0,2.21,3.84,8.69,8.69,0,0,1,8,8.68,8.77,8.77,0,1,1-17.55,0,8.67,8.67,0,0,1,.51-2.81,2.69,2.69,0,0,0-1-3L4.3,32.29A2.7,2.7,0,0,0,.15,35.35l31,89.15a2.69,2.69,0,0,0,2.55,1.81H133.88a2.7,2.7,0,0,0,2.55-1.81l31-89.15A2.65,2.65,0,0,0,166.47,32.31ZM132,120.92H35.6L8.11,41.78,42.51,67a13.3,13.3,0,0,0-.26,2.58,14.17,14.17,0,1,0,28.35,0,14,14,0,0,0-9.27-13.25L83.78,9l22.4,47.24A14.16,14.16,0,1,0,124.9,69.63a13.46,13.46,0,0,0-.36-3.1l35-24.92Z"/>
  <path id="crown-crack" d="M84.94,25.45a2.72,2.72,0,0,0-3.6,1.28L69.25,52.23a2.69,2.69,0,0,0,.59,3.12A19.35,19.35,0,0,1,76,69.62a2.7,2.7,0,0,0,5.4,0,24.57,24.57,0,0,0-6.45-16.77L86.23,29.06A2.71,2.71,0,0,0,84.94,25.45Z"/>
</svg>
