<svg id="Capa_1" data-name="Capa 1" xmlns="http://www.w3.org/2000/svg" viewBox="0 0 53 55">
  <title>exit</title>
  <g>
    <path d="M1.29,24.71l12,12a1,1,0,1,0,1.41-1.41L4.41,25H26a1,1,0,0,0,0-2H4.41L14.71,12.71a1,1,0,1,0-1.41-1.41l-12,12a1,1,0,0,0-.22.33,1,1,0,0,0,.22,1.09Z" transform="translate(-1 0)"/>
    <path d="M18,30V47a1,1,0,0,0,1,1H30v6a1,1,0,0,0,1,1,1,1,0,0,0,.3,0l22-7,0,0,.11-.06a1,1,0,0,0,.19-.13l.09-.09a1,1,0,0,0,.13-.2l.05-.1A1,1,0,0,0,54,47V1a1,1,0,0,0-.07-.35l0-.06a1,1,0,0,0-.18-.27l-.05,0L53.59.19l-.08,0A1,1,0,0,0,53.25,0l-.16,0L53,0H19a1,1,0,0,0-1,1V18a1,1,0,0,0,2,0V2H46.56L30.7,7A1,1,0,0,0,30,8V46H20V30a1,1,0,0,0-2,0ZM32,8.73,52,2.37v43.9L32,52.63Z" transform="translate(-1 0)"/>
  </g>
</svg>
