<?xml version="1.0" encoding="utf-8"?>
<!-- Generator: Adobe Illustrator 17.0.0, SVG Export Plug-In . SVG Version: 6.00 Build 0)  -->
<!DOCTYPE svg PUBLIC "-//W3C//DTD SVG 1.1//EN" "http://www.w3.org/Graphics/SVG/1.1/DTD/svg11.dtd">
<svg version="1.1" id="branding_refined_1_" xmlns="http://www.w3.org/2000/svg" xmlns:xlink="http://www.w3.org/1999/xlink"
	 x="0px" y="0px" width="141px" height="151px" viewBox="0 0 141 151" enable-background="new 0 0 141 151" xml:space="preserve">
<g id="magellan">
	<g>
		<path fill="#FFFFFF" d="M20.59521,104.25977c-1.02002,0.04297-1.21826,0.19727-1.21826,1.28906v7.44141
			c0,1.09082,0.19824,1.24414,1.21826,1.28906v0.2998c-0.46973-0.0293-1.21826-0.04395-1.9082-0.04395
			c-0.78516,0-1.50439,0.01465-1.92285,0.04395v-0.2998c1.02002-0.04492,1.21094-0.19824,1.21094-1.28906v-8.02734l-3.61865,9.68945
			h-0.24219l-3.78711-9.73438v7.91797c0,1.09863,0.19824,1.39844,1.36523,1.44336v0.2998
			c-0.35938-0.0293-1.02002-0.04395-1.53369-0.04395c-0.50684,0-1.06445,0.01465-1.39453,0.04395v-0.2998
			c1.02002-0.04492,1.21826-0.34473,1.21826-1.44336v-7.28711c0-1.0918-0.19824-1.24609-1.21826-1.28906v-0.30078
			c0.33008,0.0293,0.8877,0.04395,1.39453,0.04395c0.43994,0,0.9541-0.01465,1.28418-0.04395l3.30273,8.70117l3.22949-8.65723
			h0.71191c0.68994,0,1.43848-0.01465,1.9082-0.04395V104.25977z"/>
		<path fill="#FFFFFF" d="M36.15186,113.31934c0.30127,0.76172,0.72656,0.94434,1.04248,0.95996v0.2998
			c-0.41113-0.0293-1.04248-0.04395-1.61475-0.04395c-0.77783,0-1.49756,0.01465-1.92285,0.04395v-0.2998
			c0.72656-0.0293,1.06396-0.13965,1.06396-0.55664c0-0.17578-0.05859-0.40332-0.17627-0.70313l-0.92432-2.46094h-3.62598
			l-0.6167,1.58887c-0.20508,0.52051-0.30078,0.92285-0.30078,1.23047c0,0.65137,0.44775,0.87891,1.30664,0.90137v0.2998
			c-0.57275-0.0293-1.20361-0.04395-1.73242-0.04395c-0.50635,0-0.82178,0.01465-1.12256,0.04395v-0.2998
			c0.38867-0.08789,0.83643-0.40332,1.18164-1.30469l3.5376-9.08887h0.24219L36.15186,113.31934z M31.8291,105.7832
			l-1.72461,4.47461h3.40527L31.8291,105.7832z"/>
		<path fill="#FFFFFF" d="M51.71338,104.7207c0.11719,0.0957,0.20508,0.1543,0.30078,0.1543
			c0.19092,0,0.31543-0.28613,0.37402-0.91602h0.34521c-0.04395,0.73242-0.05859,1.70703-0.05859,3.44922h-0.34521
			c-0.13916-0.8418-0.28613-1.64746-0.75586-2.21875c-0.5874-0.73242-1.59277-1.17188-2.59814-1.17188
			c-1.99658,0-3.31006,2.04297-3.31006,5.26563c0,3.60352,1.13037,5.20801,3.58154,5.20801
			c0.71924,0,1.26221-0.25684,1.56348-0.46875c0.37402-0.25684,0.43311-0.44629,0.43311-0.82031v-1.44238
			c0-1.2168-0.25732-1.39258-1.51953-1.44336v-0.30078c0.52832,0.03711,1.4458,0.05176,2.12109,0.05176
			c0.66064,0,1.20361-0.01465,1.56348-0.05176v0.30078c-0.66064,0.05078-0.76318,0.18359-0.76318,1.28906v2.97363h-0.30127
			c-0.01465-0.34473-0.15381-0.85645-0.41064-0.85645c-0.11768,0-0.19092,0.0293-0.49219,0.25586
			c-0.66016,0.49805-1.37207,0.8125-2.34863,0.8125c-3.11182,0-4.9248-1.99902-4.9248-5.33887
			c0-3.50098,2.04053-5.70605,4.83691-5.70605C50.31152,103.74609,51.00146,104.21484,51.71338,104.7207z"/>
		<path fill="#FFFFFF" d="M68.75781,114.5791c-1.02002-0.04395-2.43652-0.04395-3.44238-0.04395
			c-0.90283,0-2.88428,0-4.35938,0.04395v-0.2998c1.02002-0.04492,1.21826-0.19824,1.21826-1.28906v-7.44141
			c0-1.0918-0.19824-1.24609-1.21826-1.28906v-0.30078c1.4751,0.04395,3.45654,0.04395,4.35938,0.04395
			c0.91748,0,2.20947,0,3.1416-0.04395c-0.07373,0.70313-0.10303,1.42773-0.10303,1.77246c0,0.3584,0.01465,0.70313,0.04395,0.93066
			h-0.34473c-0.19824-1.77344-0.42578-2.35938-2.01855-2.35938h-1.24756c-1.02002,0-1.21826,0.1543-1.21826,1.24609v3.53711h0.99805
			c1.30664,0,1.27686-1.25977,1.39453-1.97754h0.34473c-0.04395,0.6377-0.05127,1.06934-0.05127,1.41309
			c0,0.2793,0.00732,0.49805,0.00732,0.71875c0,0.49023,0.01465,0.98828,0.08838,2.13086h-0.34521
			c-0.11719-0.95898-0.13184-1.98438-1.43848-1.98438h-0.99805v3.60352c0,1.09082,0.19824,1.24414,1.21826,1.24414h1.10107
			c1.87891,0,2.25293-0.67383,2.46582-2.6582h0.34521c-0.0293,0.27148-0.04443,0.66602-0.04443,1.08398
			C68.65479,113.0332,68.68457,113.81738,68.75781,114.5791z"/>
		<path fill="#FFFFFF" d="M80.33984,104.25977c-1.01953,0.04297-1.21777,0.19727-1.21777,1.28906v7.44141
			c0,1.09082,0.19824,1.24414,1.21777,1.24414h1.10156c1.87891,0,2.25293-0.7168,2.46582-2.80469h0.34473
			c-0.0293,0.31445-0.04395,0.74707-0.04395,1.23047c0,0.37305,0.0293,1.15723,0.10254,1.91895
			c-1.01953-0.04395-2.43652-0.04395-3.44141-0.04395c-0.90332,0-2.88477,0-4.36035,0.04395v-0.2998
			c1.02051-0.04492,1.21875-0.19824,1.21875-1.28906v-7.44141c0-1.0918-0.19824-1.24609-1.21875-1.28906v-0.30078
			c0.41895,0.0293,1.14551,0.04395,1.92285,0.04395c0.69043,0,1.44629-0.01465,1.9082-0.04395V104.25977z"/>
		<path fill="#FFFFFF" d="M95.57813,104.25977c-1.01953,0.04297-1.21777,0.19727-1.21777,1.28906v7.44141
			c0,1.09082,0.19824,1.24414,1.21777,1.24414h1.10156c1.87891,0,2.25293-0.7168,2.46582-2.80469h0.34473
			c-0.0293,0.31445-0.04395,0.74707-0.04395,1.23047c0,0.37305,0.0293,1.15723,0.10254,1.91895
			c-1.01953-0.04395-2.43652-0.04395-3.44141-0.04395c-0.90332,0-2.88477,0-4.36035,0.04395v-0.2998
			c1.02051-0.04492,1.21875-0.19824,1.21875-1.28906v-7.44141c0-1.0918-0.19824-1.24609-1.21875-1.28906v-0.30078
			c0.41895,0.0293,1.14551,0.04395,1.92285,0.04395c0.69043,0,1.44629-0.01465,1.9082-0.04395V104.25977z"/>
		<path fill="#FFFFFF" d="M114.875,113.31934c0.30078,0.76172,0.72656,0.94434,1.04199,0.95996v0.2998
			c-0.41113-0.0293-1.04199-0.04395-1.61523-0.04395c-0.77734,0-1.49707,0.01465-1.92285,0.04395v-0.2998
			c0.72656-0.0293,1.06445-0.13965,1.06445-0.55664c0-0.17578-0.05859-0.40332-0.17578-0.70313l-0.9248-2.46094h-3.62598
			l-0.61621,1.58887c-0.20605,0.52051-0.30078,0.92285-0.30078,1.23047c0,0.65137,0.44727,0.87891,1.30566,0.90137v0.2998
			c-0.57227-0.0293-1.20313-0.04395-1.73145-0.04395c-0.50684,0-0.82227,0.01465-1.12305,0.04395v-0.2998
			c0.38867-0.08789,0.83691-0.40332,1.18164-1.30469l3.53711-9.08887h0.24219L114.875,113.31934z M110.55176,105.7832
			l-1.72461,4.47461h3.40527L110.55176,105.7832z"/>
		<path fill="#FFFFFF" d="M131.99121,104.25977c-1.01953,0.04297-1.21777,0.34375-1.21777,1.44238v8.9502h-0.34473l-6.3125-9.73438
			v7.91797c0,1.09863,0.19824,1.39844,1.36523,1.44336v0.2998c-0.35938-0.0293-1.02051-0.04395-1.53418-0.04395
			c-0.50586,0-1.06348,0.01465-1.39453,0.04395v-0.2998c1.02051-0.04492,1.21875-0.34473,1.21875-1.44336v-7.28711
			c0-1.0918-0.19824-1.24609-1.21875-1.28906v-0.30078c0.33105,0.0293,0.88867,0.04395,1.39453,0.04395
			c0.44043,0,0.84473-0.01465,1.1748-0.04395l5.30664,8.15918v-6.41602c0-1.09863-0.19141-1.39941-1.36523-1.44238v-0.30078
			c0.35938,0.0293,1.01953,0.04395,1.5332,0.04395c0.50684,0,1.06445-0.01465,1.39453-0.04395V104.25977z"/>
	</g>
</g>
<g id="media">
	<g>
		<path fill="#FFFFFF" d="M52.84521,130.71094c-0.74854,0.03125-0.89404,0.14453-0.89404,0.94531v5.45703
			c0,0.7998,0.14551,0.91211,0.89404,0.94531v0.21973c-0.34473-0.02148-0.89404-0.03223-1.40039-0.03223
			c-0.57617,0-1.104,0.01074-1.41113,0.03223v-0.21973c0.74854-0.0332,0.88867-0.14551,0.88867-0.94531v-5.88672l-2.65576,7.10547
			h-0.17773l-2.7793-7.13867V137c0,0.80566,0.14551,1.02539,1.00195,1.05859v0.21973
			c-0.26367-0.02148-0.74854-0.03223-1.12549-0.03223c-0.37207,0-0.78125,0.01074-1.02344,0.03223v-0.21973
			c0.74854-0.0332,0.89404-0.25293,0.89404-1.05859v-5.34375c0-0.80078-0.14551-0.91406-0.89404-0.94531v-0.2207
			c0.24219,0.02148,0.65137,0.03223,1.02344,0.03223c0.32275,0,0.7002-0.01074,0.94238-0.03223l2.42383,6.38086l2.37012-6.34863
			h0.52246c0.50635,0,1.05566-0.01074,1.40039-0.03223V130.71094z"/>
		<path fill="#FFFFFF" d="M64.18701,138.27832c-0.74854-0.03223-1.78809-0.03223-2.52637-0.03223
			c-0.6626,0-2.1167,0-3.19922,0.03223v-0.21973c0.74854-0.0332,0.89404-0.14551,0.89404-0.94531v-5.45703
			c0-0.80078-0.14551-0.91406-0.89404-0.94531v-0.2207c1.08252,0.03223,2.53662,0.03223,3.19922,0.03223
			c0.67334,0,1.62158,0,2.30566-0.03223c-0.0542,0.51563-0.07568,1.04688-0.07568,1.2998c0,0.2627,0.01074,0.51563,0.03223,0.68262
			h-0.25293c-0.14551-1.30078-0.3125-1.73047-1.48145-1.73047h-0.91553c-0.74854,0-0.89404,0.11328-0.89404,0.91406V134.25h0.73242
			c0.95898,0,0.9375-0.92383,1.02344-1.4502h0.25293c-0.03223,0.46777-0.0376,0.78418-0.0376,1.03613
			c0,0.20508,0.00537,0.36523,0.00537,0.52734c0,0.35938,0.01074,0.72461,0.06494,1.5625h-0.25342
			c-0.08594-0.70313-0.09668-1.45508-1.05566-1.45508h-0.73242v2.64258c0,0.7998,0.14551,0.91211,0.89404,0.91211h0.80811
			c1.37891,0,1.65332-0.49414,1.80957-1.94922h0.25342c-0.02148,0.19922-0.03271,0.48828-0.03271,0.79492
			C64.11133,137.14453,64.1333,137.71973,64.18701,138.27832z"/>
		<path fill="#FFFFFF" d="M76.77246,134.29883c0,2.39453-1.4541,3.97949-3.99121,3.97949c-0.33398,0-1.07227-0.03223-1.5459-0.03223
			c-0.51709,0-1.06152,0.01074-1.36816,0.03223v-0.21973c0.74854-0.0332,0.89404-0.14551,0.89404-0.94531v-5.45703
			c0-0.80078-0.14551-0.91406-0.89404-0.94531v-0.2207c0.25293,0.01563,0.66797,0.03711,1.07715,0.03711
			c0.0918,0,0.17773-0.00488,0.26953-0.00488c0.50586-0.01074,1.24414-0.03223,1.66406-0.03223
			C75.50684,130.49023,76.77246,131.84375,76.77246,134.29883z M71.78418,131.63477v5.5c0,0.76758,0.14551,0.94531,0.83008,0.94531
			c2.40234,0,3.05371-1.34375,3.05371-3.73828c0-2.46582-0.78125-3.65234-3.06445-3.65234
			C71.92969,130.68945,71.78418,130.87695,71.78418,131.63477z"/>
		<path fill="#FFFFFF" d="M85.24805,130.71094c-0.74805,0.03125-0.89355,0.14453-0.89355,0.94531v5.45703
			c0,0.7998,0.14551,0.91211,0.89355,0.94531v0.21973c-0.33887-0.02148-0.89355-0.03223-1.40039-0.03223
			c-0.57031,0-1.10352,0.01074-1.41113,0.03223v-0.21973c0.74902-0.0332,0.89453-0.14551,0.89453-0.94531v-5.45703
			c0-0.80078-0.14551-0.91406-0.89453-0.94531v-0.2207c0.30762,0.02148,0.84082,0.03223,1.41113,0.03223
			c0.50684,0,1.06152-0.01074,1.40039-0.03223V130.71094z"/>
		<path fill="#FFFFFF" d="M96.6543,137.35449c0.2207,0.55859,0.5332,0.69238,0.76465,0.7041v0.21973
			c-0.30176-0.02148-0.76465-0.03223-1.18555-0.03223c-0.57031,0-1.09863,0.01074-1.41113,0.03223v-0.21973
			c0.5332-0.02148,0.78125-0.10254,0.78125-0.4082c0-0.12891-0.04297-0.2959-0.12891-0.51563l-0.67871-1.80469h-2.66113
			l-0.45215,1.16504c-0.15137,0.38184-0.2207,0.67676-0.2207,0.90234c0,0.47754,0.32813,0.64453,0.95801,0.66113v0.21973
			c-0.41992-0.02148-0.88281-0.03223-1.27051-0.03223c-0.37207,0-0.60352,0.01074-0.82422,0.03223v-0.21973
			c0.28516-0.06445,0.61426-0.2959,0.86719-0.95703l2.5957-6.66504h0.17773L96.6543,137.35449z M93.48145,131.82813
			l-1.26563,3.28125h2.49902L93.48145,131.82813z"/>
	</g>
</g>
<g id="MLL">
	<g>
		<path fill-rule="evenodd" clip-rule="evenodd" fill="#FFFFFF" d="M120.02319,77.34686
			c-6.62097-0.27612-7.90704-1.24219-7.90704-8.09796V22.50104c0-6.85577,1.28607-7.82208,7.90704-8.09821l-0.28656-1.51508
			c-8.67816,0-22.05847,0-27.9173,0c-6.52563,0-16.27393,0-22.63562,0c0.00043,0.00409,0.00079,0.00812,0.00122,0.01221
			c-5.93268,0.02002-14.53918-0.02832-20.2832-0.02832c-5.85895,0-19.11682,0.03918-28.00714,0.01611l-0.28668,1.59436
			c6.62097,0.27612,7.90698,1.24249,7.90698,8.09821v46.74792c0,6.85571-1.28601,7.82208-7.90698,8.09821l-0.46796,1.71979
			c2.71515,0.02271,7.77777,0,12.82678,0c4.47748,0,9.80255-0.02307,12.8269,0l-0.32147-1.71979
			c-6.62097-0.27612-7.90698-1.24249-7.90698-8.09821V22.58032c0-6.85571,1.28601-7.82208,7.90698-7.82208h7.1449
			c12.19391,0,14.43085,4.15759,15.81226,17.27081h1.50891h0.75464h1.50903c1.38129-13.11322,3.61816-17.3501,15.81207-17.3501
			h7.14496c6.62091,0,7.9071,0.96631,7.9071,7.82208V69.2489c0,6.85577-1.28619,7.82184-7.9071,8.09796l-0.32141,1.79938
			c2.95355,0.02271,8.34924,0,12.82672,0c5.04901,0,10.0882-0.02307,12.8269,0L120.02319,77.34686z"/>
	</g>
</g>
</svg>
