<svg id="branding-text-spacing" xmlns="http://www.w3.org/2000/svg" viewBox="0 0 140.57 128.58">
  <title>logo-text-spacing</title>
  <g id="magellan">
    <text transform="translate(22.03 101.64)" font-size="17" fill="#fff" font-family="PlayfairDisplaySC-Regular, Playfair Display SC" letter-spacing="0.41em" style="isolation: isolate">A</text>
    <text transform="translate(0 101.64)" font-size="17" fill="#fff" font-family="PlayfairDisplaySC-Regular, Playfair Display SC" letter-spacing="0.41em" style="isolation: isolate">M</text>
    <text transform="translate(39.82 101.64)" font-size="17" fill="#fff" font-family="PlayfairDisplaySC-Regular, Playfair Display SC" letter-spacing="0.41em" style="isolation: isolate">G</text>
    <text transform="translate(58.98 101.64)" font-size="17" fill="#fff" font-family="PlayfairDisplaySC-Regular, Playfair Display SC" letter-spacing="0.41em" style="isolation: isolate">E</text>
    <text transform="translate(76.54 101.64)" font-size="17" fill="#fff" font-family="PlayfairDisplaySC-Regular, Playfair Display SC" letter-spacing="0.41em" style="isolation: isolate">L</text>
    <text transform="translate(111.01 101.64)" font-size="17" fill="#fff" font-family="PlayfairDisplaySC-Regular, Playfair Display SC" letter-spacing="0.41em" style="isolation: isolate">A</text>
    <text transform="translate(128.56 101.64)" font-size="17" fill="#fff" font-family="PlayfairDisplaySC-Regular, Playfair Display SC" style="isolation: isolate">N</text>
    <text transform="translate(93.78 101.64)" font-size="17" fill="#fff" font-family="PlayfairDisplaySC-Regular, Playfair Display SC" letter-spacing="0.41em" style="isolation: isolate">L</text>
    <text transform="translate(38.61 125.44)" font-size="13" fill="#fff" font-family="PlayfairDisplaySC-Regular, Playfair Display SC" letter-spacing="0.38em" style="isolation: isolate">M</text>
    <text transform="translate(55.45 125.44)" font-size="13" fill="#fff" font-family="PlayfairDisplaySC-Regular, Playfair Display SC" letter-spacing="0.38em" style="isolation: isolate">E</text>
    <text transform="translate(68.86 125.44)" font-size="13" fill="#fff" font-family="PlayfairDisplaySC-Regular, Playfair Display SC" letter-spacing="0.38em" style="isolation: isolate">D</text>
    <text transform="translate(83.73 125.44)" font-size="13" fill="#fff" font-family="PlayfairDisplaySC-Regular, Playfair Display SC" letter-spacing="0.38em" style="isolation: isolate">I</text>
    <text transform="translate(93.69 125.44)" font-size="13" fill="#fff" font-family="PlayfairDisplaySC-Regular, Playfair Display SC" style="isolation: isolate">A</text>
  </g>
  <g id="MLL">
    <path d="M132,77.35c-6.62-.28-7.91-1.24-7.91-8.1V22.5c0-6.86,1.29-7.82,7.91-8.1l-.29-1.52H81.18c-5.93,0-14.54,0-20.28,0s-19.12,0-28,0l-.29,1.59c6.62.28,7.91,1.24,7.91,8.1V69.33c0,6.86-1.29,7.82-7.91,8.1l-.47,1.72c2.72,0,7.78,0,12.83,0,4.48,0,9.8,0,12.83,0l-.32-1.72c-6.62-.28-7.91-1.24-7.91-8.1V22.58c0-6.86,1.29-7.82,7.91-7.82h7.14C76.81,14.76,79,18.92,80.43,32H84.2C85.58,18.92,87.82,14.68,100,14.68h7.14c6.62,0,7.91,1,7.91,7.82V69.25c0,6.86-1.29,7.82-7.91,8.1l-.32,1.8c3,0,8.35,0,12.83,0,5,0,10.09,0,12.83,0Z" transform="translate(-11.77 -12.87)" fill="#fff"/>
  </g>
</svg>
