<svg id="ornament" xmlns="http://www.w3.org/2000/svg" viewBox="0 0 29.01 8.01">
  <title>ornament</title>
  <path id="ornament-body" d="M4,3.3a2.35,2.35,0,0,0-2.45,2,1.35,1.35,0,0,0,.52,1.14c.19.15.19.37,0,.62a1.45,1.45,0,0,1-1,.5A1.18,1.18,0,0,1,0,6.27,3.32,3.32,0,0,1,1.5,3.89,6,6,0,0,1,5.06,2.51,9.58,9.58,0,0,1,11.31,0a10.67,10.67,0,0,1,3.93.86c.67.26,3.3,1.38,5.17,2.21a13.71,13.71,0,0,0,4.78,1.32c.93,0,2.27-.33,2.27-1.49a1.06,1.06,0,0,0-.4-.89.64.64,0,0,1-.23-.42,1.11,1.11,0,0,1,1-1.08A1.27,1.27,0,0,1,29,1.82c0,1.55-1.65,2.6-2.77,3.06C24.18,7.11,22.11,8,20.1,8a13.41,13.41,0,0,1-4.76-1.1c-1.42-.52-5.86-2.37-7.64-3A11,11,0,0,0,4.06,3.3ZM9.77.84a3.92,3.92,0,0,0-3.3,1.74,11.78,11.78,0,0,1,3.9.9c1.94.67,5.52,2.24,6.78,2.67a12.91,12.91,0,0,0,4,.86,3.72,3.72,0,0,0,3.51-1.78,8.79,8.79,0,0,1-4.61-.8c-1.48-.58-5.54-2.48-6.91-3A10.34,10.34,0,0,0,9.79.84Z" transform="translate(0 0.01)" opacity="0.2" style="isolation: isolate"/>
</svg>
