<svg id="send-form" xmlns="http://www.w3.org/2000/svg" viewBox="0 0 46.56 22.05">
  <title>mail</title>
  <path d="M40.09,22h-26A2.07,2.07,0,0,1,12,19.49L15.52,2.36A3.08,3.08,0,0,1,18.41,0h26a2.12,2.12,0,0,1,1.68.76,2.11,2.11,0,0,1,.4,1.8L43,19.69A3.08,3.08,0,0,1,40.09,22ZM18.41,1A2.07,2.07,0,0,0,16.5,2.56L13,19.69A1.07,1.07,0,0,0,14.08,21h26A2.07,2.07,0,0,0,42,19.49h0L45.53,2.36a1.14,1.14,0,0,0-.2-1A1.13,1.13,0,0,0,44.42,1Z"/>
  <path d="M29,13.54a2.8,2.8,0,0,1-2-.84L17.06,2.29a.5.5,0,1,1,.72-.69L27.66,12a1.84,1.84,0,0,0,2.33.21L44.53,1.54a.5.5,0,0,1,.59.81L30.58,13A2.73,2.73,0,0,1,29,13.54Z"/>
  <path d="M12.08,3.74H5.5a.5.5,0,0,1,0-1h6.58a.5.5,0,0,1,0,1Z"/>
  <path d="M10.75,10.41H.5a.5.5,0,1,1,0-1H10.75a.5.5,0,1,1,0,1Z"/>
  <path d="M9.08,16.41h-5a.5.5,0,0,1,0-1h5a.5.5,0,0,1,0,1Z"/>
</svg>
