<?xml version="1.0" encoding="UTF-8"?><!DOCTYPE svg PUBLIC "-//W3C//DTD SVG 1.1//EN" "http://www.w3.org/Graphics/SVG/1.1/DTD/svg11.dtd"><svg xmlns="http://www.w3.org/2000/svg">
<symbol id="branding-small-bigger" xmlns="http://www.w3.org/2000/svg" viewBox="0 0 169.98 138.31">
  <title>branding-small-bigger</title>
  <g id="magellan">
    <g>
      <path d="M2.91,101.18c-1.41.06-1.68.27-1.68,1.78v10.26c0,1.5.27,1.72,1.68,1.78v.41c-.65,0-1.68-.06-2.63-.06s-2.08,0-2.65.06V115c1.41-.06,1.67-.27,1.67-1.78V102.15l-5,13.37H-6l-5.22-13.43V113c0,1.52.27,1.93,1.88,2v.41c-.5,0-1.41-.06-2.12-.06s-1.47,0-1.92.06V115c1.41-.06,1.68-.48,1.68-2V103c0-1.51-.27-1.72-1.68-1.78v-.41c.46,0,1.22.06,1.92.06s1.32,0,1.77-.06l4.56,12,4.45-11.94h1c1,0,2,0,2.63-.06Z" transform="translate(13.41 -9.87)" fill="#fff"/>
      <path d="M24.37,113.68c.42,1.05,1,1.3,1.44,1.32v.41c-.57,0-1.44-.06-2.23-.06-1.07,0-2.07,0-2.65.06V115c1,0,1.47-.19,1.47-.77a2.83,2.83,0,0,0-.24-1l-1.28-3.39h-5L15,112.06a4.89,4.89,0,0,0-.41,1.7c0,.9.62,1.21,1.8,1.24v.41c-.79,0-1.66-.06-2.39-.06a15.27,15.27,0,0,0-1.55.06V115c.54-.12,1.15-.56,1.63-1.8L19,100.67h.33Zm-6-10.4L16,109.46h4.7Z" transform="translate(13.41 -9.87)" fill="#fff"/>
      <path d="M45.83,101.82a.7.7,0,0,0,.41.21c.26,0,.44-.39.52-1.26h.48c-.06,1-.08,2.35-.08,4.76h-.48a6.4,6.4,0,0,0-1-3.06,4.66,4.66,0,0,0-3.58-1.62c-2.75,0-4.57,2.82-4.57,7.26,0,5,1.56,7.18,4.94,7.18a3.79,3.79,0,0,0,2.16-.65,1.12,1.12,0,0,0,.6-1.13v-2c0-1.68-.35-1.92-2.1-2v-.41c.73.05,2,.07,2.93.07s1.66,0,2.16-.07v.41c-.91.07-1.05.25-1.05,1.78v4.1H46.7c0-.48-.21-1.18-.57-1.18-.16,0-.26,0-.68.35a5.09,5.09,0,0,1-3.24,1.12c-4.29,0-6.79-2.76-6.79-7.36,0-4.83,2.81-7.87,6.67-7.87A5.75,5.75,0,0,1,45.83,101.82Z" transform="translate(13.41 -9.87)" fill="#fff"/>
      <path d="M69.34,115.42c-1.41-.06-3.36-.06-4.75-.06s-4,0-6,.06V115c1.41-.06,1.68-.27,1.68-1.78V103c0-1.51-.27-1.72-1.68-1.78v-.41c2,.06,4.77.06,6,.06s3,0,4.33-.06c-.1,1-.14,2-.14,2.44a11.15,11.15,0,0,0,.06,1.28h-.48c-.27-2.45-.59-3.25-2.78-3.25H63.86c-1.41,0-1.68.21-1.68,1.72v4.88h1.38c1.8,0,1.76-1.74,1.92-2.73H66c-.06.88-.07,1.48-.07,1.95s0,.69,0,1c0,.68,0,1.36.12,2.94h-.48c-.16-1.32-.18-2.74-2-2.74H62.18v5c0,1.5.27,1.72,1.68,1.72h1.52c2.59,0,3.11-.93,3.4-3.67h.48c0,.37-.06.92-.06,1.5S69.24,114.37,69.34,115.42Z" transform="translate(13.41 -9.87)" fill="#fff"/>
      <path d="M85.32,101.18c-1.41.06-1.68.27-1.68,1.78v10.26c0,1.5.27,1.72,1.68,1.72h1.52c2.59,0,3.11-1,3.4-3.87h.48c0,.43-.06,1-.06,1.7,0,.51,0,1.6.14,2.65-1.41-.06-3.36-.06-4.75-.06s-4,0-6,.06V115c1.41-.06,1.68-.27,1.68-1.78V103c0-1.51-.27-1.72-1.68-1.78v-.41c.58,0,1.58.06,2.65.06s2,0,2.63-.06v.41h0Z" transform="translate(13.41 -9.87)" fill="#fff"/>
      <path d="M106.34,101.18c-1.41.06-1.68.27-1.68,1.78v10.26c0,1.5.27,1.72,1.68,1.72h1.52c2.59,0,3.11-1,3.4-3.87h.48c0,.43-.06,1-.06,1.7,0,.51,0,1.6.14,2.65-1.41-.06-3.36-.06-4.75-.06s-4,0-6,.06V115c1.41-.06,1.68-.27,1.68-1.78V103c0-1.51-.27-1.72-1.68-1.78v-.41c.58,0,1.58.06,2.65.06s2,0,2.63-.06Z" transform="translate(13.41 -9.87)" fill="#fff"/>
      <path d="M133,113.68c.41,1.05,1,1.3,1.44,1.32v.41c-.57,0-1.44-.06-2.23-.06-1.07,0-2.07,0-2.65.06V115c1,0,1.47-.19,1.47-.77a2.84,2.84,0,0,0-.24-1l-1.28-3.39h-5l-.85,2.19a4.86,4.86,0,0,0-.41,1.7c0,.9.62,1.21,1.8,1.24v.41c-.79,0-1.66-.06-2.39-.06a15.27,15.27,0,0,0-1.55.06V115c.54-.12,1.15-.56,1.63-1.8l4.88-12.54h.33Zm-6-10.4-2.38,6.17h4.7Z" transform="translate(13.41 -9.87)" fill="#fff"/>
      <path d="M156.56,101.18c-1.41.06-1.68.47-1.68,2v12.35h-.48l-8.71-13.43V113c0,1.52.27,1.93,1.88,2v.41c-.5,0-1.41-.06-2.12-.06s-1.47,0-1.92.06V115c1.41-.06,1.68-.48,1.68-2V103c0-1.51-.27-1.72-1.68-1.78v-.41c.46,0,1.23.06,1.92.06s1.17,0,1.62-.06L154.41,112v-8.85c0-1.52-.26-1.93-1.88-2v-.41c.5,0,1.41.06,2.11.06s1.47,0,1.92-.06v.41h0Z" transform="translate(13.41 -9.87)" fill="#fff"/>
    </g>
  </g>
  <g id="media">
    <g>
      <path d="M47.39,137.67c-1,0-1.23.2-1.23,1.3v7.53c0,1.1.2,1.26,1.23,1.3v.3c-.48,0-1.23,0-1.93,0s-1.52,0-1.95,0v-.3c1,0,1.23-.2,1.23-1.3v-8.12l-3.66,9.8h-.25L37,138.34v8c0,1.11.2,1.41,1.38,1.46v.3c-.36,0-1,0-1.55,0s-1.08,0-1.41,0v-.3c1,0,1.23-.35,1.23-1.46V139c0-1.1-.2-1.26-1.23-1.3v-.3c.33,0,.9,0,1.41,0s1,0,1.3,0l3.34,8.8,3.27-8.76h.72c.7,0,1.46,0,1.93,0v.3Z" transform="translate(13.41 -9.87)" fill="#fff"/>
      <path d="M63,148.11c-1,0-2.47,0-3.48,0s-2.92,0-4.41,0v-.3c1,0,1.23-.2,1.23-1.3V139c0-1.1-.2-1.26-1.23-1.3v-.3c1.49,0,3.5,0,4.41,0s2.24,0,3.18,0c-.07.71-.1,1.44-.1,1.79a8.19,8.19,0,0,0,0,.94h-.35c-.2-1.79-.43-2.39-2-2.39H59c-1,0-1.23.16-1.23,1.26v3.58h1c1.32,0,1.29-1.27,1.41-2h.35c0,.65-.05,1.08-.05,1.43s0,.5,0,.73c0,.5,0,1,.09,2.16h-.35c-.12-1-.13-2-1.46-2h-1v3.65c0,1.1.2,1.26,1.23,1.26h1.11c1.9,0,2.28-.68,2.5-2.69H63c0,.27,0,.67,0,1.1S63,147.34,63,148.11Z" transform="translate(13.41 -9.87)" fill="#fff"/>
      <path d="M80.4,142.62c0,3.3-2,5.49-5.51,5.49-.46,0-1.48,0-2.13,0s-1.46,0-1.89,0v-.3c1,0,1.23-.2,1.23-1.3V139c0-1.1-.2-1.26-1.23-1.3v-.3c.35,0,.92.05,1.49.05h.37c.7,0,1.72,0,2.3,0C78.65,137.37,80.4,139.23,80.4,142.62Zm-6.88-3.67v7.59c0,1.06.2,1.3,1.14,1.3,3.31,0,4.21-1.85,4.21-5.16s-1.08-5-4.23-5C73.72,137.64,73.52,137.9,73.52,138.94Z" transform="translate(13.41 -9.87)" fill="#fff"/>
      <path d="M92.09,137.67c-1,0-1.23.2-1.23,1.3v7.53c0,1.1.2,1.26,1.23,1.3v.3c-.47,0-1.23,0-1.93,0s-1.52,0-1.95,0v-.3c1,0,1.23-.2,1.23-1.3V139c0-1.1-.2-1.26-1.23-1.3v-.3c.42,0,1.16,0,1.95,0s1.46,0,1.93,0Z" transform="translate(13.41 -9.87)" fill="#fff"/>
      <path d="M107.82,146.83c.3.77.74,1,1.05,1v.3c-.42,0-1.05,0-1.64,0-.79,0-1.52,0-1.95,0v-.3c.74,0,1.08-.14,1.08-.56a2.08,2.08,0,0,0-.18-.71l-.94-2.49h-3.67l-.62,1.61a3.56,3.56,0,0,0-.3,1.24c0,.66.45.89,1.32.91v.3c-.58,0-1.22,0-1.75,0a11.22,11.22,0,0,0-1.14,0v-.3c.39-.09.85-.41,1.2-1.32l3.58-9.19h.25Zm-4.38-7.62-1.75,4.53h3.45Z" transform="translate(13.41 -9.87)" fill="#fff"/>
    </g>
  </g>
  <g id="MLL">
    <path d="M121,74.35c-6.62-.28-7.91-1.24-7.91-8.1V19.5c0-6.86,1.29-7.82,7.91-8.1l-.29-1.51H70.18c-5.93,0-14.54,0-20.28,0s-19.12,0-28,0l-.29,1.59c6.62.28,7.91,1.24,7.91,8.1V66.33c0,6.86-1.29,7.82-7.91,8.1l-.47,1.72c2.72,0,7.78,0,12.83,0,4.48,0,9.8,0,12.83,0l-.32-1.72c-6.62-.28-7.91-1.24-7.91-8.1V19.58c0-6.86,1.29-7.82,7.91-7.82h7.14C65.81,11.76,68,15.92,69.43,29H73.2C74.58,15.92,76.82,11.68,89,11.68h7.15c6.62,0,7.91,1,7.91,7.82V66.25c0,6.86-1.29,7.82-7.91,8.1l-.32,1.8c3,0,8.35,0,12.83,0,5,0,10.09,0,12.83,0Z" transform="translate(13.41 -9.87)" fill="#fff"/>
  </g>
</symbol>
<symbol id="layers" xmlns="http://www.w3.org/2000/svg" viewBox="0 0 54.95 53.3">
  <title>layers</title>
  <path id="layers-body" d="M45.3,21.95,55,16.43,27.48.82,0,16.43l9.66,5.52L0,27.43l9.66,5.52L0,38.43l27.48,15.7L55,38.43,45.3,32.95,55,27.43ZM27.48,3.12,50.91,16.43,27.48,29.82,4,16.43Zm-15.8,20,15.8,9,15.8-9,7.63,4.33L27.48,40.82,4,27.43ZM50.91,38.43,27.48,51.82,4,38.43l7.63-4.33,15.8,9,15.8-9Z" transform="translate(0 -0.82)"/>
</symbol>
<symbol id="right-arrow" viewBox="0 0 31.49 22.14">
  <title>right-arrow</title>
  <path id="right-arrow-body" d="M21.2,5a1.12,1.12,0,1,0-1.59,1.57l8,8H1.11A1.11,1.11,0,0,0,0,15.74a1.12,1.12,0,0,0,1.11,1.13H27.67l-8,8a1.14,1.14,0,0,0,0,1.59,1.11,1.11,0,0,0,1.59,0l10-10a1.09,1.09,0,0,0,0-1.57Z" transform="translate(0 -4.67)"/>
</symbol>
<symbol id="exit" viewBox="0 0 53 55">
  <title>exit</title>
  <g>
    <path d="M1.29,24.71l12,12a1,1,0,1,0,1.41-1.41L4.41,25H26a1,1,0,0,0,0-2H4.41L14.71,12.71a1,1,0,1,0-1.41-1.41l-12,12a1,1,0,0,0-.22.33,1,1,0,0,0,.22,1.09Z" transform="translate(-1 0)"/>
    <path d="M18,30V47a1,1,0,0,0,1,1H30v6a1,1,0,0,0,1,1,1,1,0,0,0,.3,0l22-7,0,0,.11-.06a1,1,0,0,0,.19-.13l.09-.09a1,1,0,0,0,.13-.2l.05-.1A1,1,0,0,0,54,47V1a1,1,0,0,0-.07-.35l0-.06a1,1,0,0,0-.18-.27l-.05,0L53.59.19l-.08,0A1,1,0,0,0,53.25,0l-.16,0L53,0H19a1,1,0,0,0-1,1V18a1,1,0,0,0,2,0V2H46.56L30.7,7A1,1,0,0,0,30,8V46H20V30a1,1,0,0,0-2,0ZM32,8.73,52,2.37v43.9L32,52.63Z" transform="translate(-1 0)"/>
  </g>
</symbol>
<symbol id="ornament" viewBox="0 0 29.01 8.01">
  <title>ornament</title>
  <path id="ornament-body" d="M4,3.3a2.35,2.35,0,0,0-2.45,2,1.35,1.35,0,0,0,.52,1.14c.19.15.19.37,0,.62a1.45,1.45,0,0,1-1,.5A1.18,1.18,0,0,1,0,6.27,3.32,3.32,0,0,1,1.5,3.89,6,6,0,0,1,5.06,2.51,9.58,9.58,0,0,1,11.31,0a10.67,10.67,0,0,1,3.93.86c.67.26,3.3,1.38,5.17,2.21a13.71,13.71,0,0,0,4.78,1.32c.93,0,2.27-.33,2.27-1.49a1.06,1.06,0,0,0-.4-.89.64.64,0,0,1-.23-.42,1.11,1.11,0,0,1,1-1.08A1.27,1.27,0,0,1,29,1.82c0,1.55-1.65,2.6-2.77,3.06C24.18,7.11,22.11,8,20.1,8a13.41,13.41,0,0,1-4.76-1.1c-1.42-.52-5.86-2.37-7.64-3A11,11,0,0,0,4.06,3.3ZM9.77.84a3.92,3.92,0,0,0-3.3,1.74,11.78,11.78,0,0,1,3.9.9c1.94.67,5.52,2.24,6.78,2.67a12.91,12.91,0,0,0,4,.86,3.72,3.72,0,0,0,3.51-1.78,8.79,8.79,0,0,1-4.61-.8c-1.48-.58-5.54-2.48-6.91-3A10.34,10.34,0,0,0,9.79.84Z" transform="translate(0 0.01)" opacity="0.2" style="isolation: isolate"/>
</symbol>
<symbol id="crown" viewBox="0 0 35.01 14">
  <title>crown</title>
  <path id="crown-body" d="M17.47,10.33h.07a4.47,4.47,0,0,1,4.24-3.12A15.49,15.49,0,0,1,25.9,8a5.41,5.41,0,0,0,1.68.41,1.81,1.81,0,0,0,1.83-1.8,1.5,1.5,0,0,0,0-.21,1.85,1.85,0,0,0-1.76-1.94h-.13a1.09,1.09,0,0,0-1,.76.7.7,0,0,1,.83.54.68.68,0,0,1,0,.23.73.73,0,0,1-.69.76h-.08a1,1,0,0,1-1-1.18,2,2,0,0,1,2-1.8A2.41,2.41,0,0,1,30,6a2.55,2.55,0,0,1,0,.35A2.44,2.44,0,0,1,27.79,9h-.28A5.67,5.67,0,0,1,26,8.6l-.07.07c3.36,3.46,4.55,4.71,6.37,4.71a1.88,1.88,0,0,0,2-1.73,1.93,1.93,0,0,0,0-.22A1.25,1.25,0,0,0,33,10a.53.53,0,0,0-.49.35.69.69,0,0,1,.42.69.75.75,0,0,1-.73.77h-.11a1.06,1.06,0,0,1-1-1.13.49.49,0,0,1,0-.05,1.54,1.54,0,0,1,1.54-1.46A2.16,2.16,0,0,1,35,11.07a2.13,2.13,0,0,1,0,.37A2.59,2.59,0,0,1,32.4,14h-.2c-2.59,0-4.62-2.91-6.3-4.5l-.07.07a3.66,3.66,0,0,1,.35,1.73,2.55,2.55,0,0,1-2.45,2.63,2.17,2.17,0,0,1-2.31-2A1.85,1.85,0,0,1,23.1,10a1.13,1.13,0,0,1,1.26,1v0a.82.82,0,0,1-.65,1h0a.7.7,0,0,1-.71-.69.76.76,0,0,1,0-.14.79.79,0,0,1,0-.41A1,1,0,0,0,22,11.82s0,.07,0,.1a1.55,1.55,0,0,0,1.61,1.46,1.84,1.84,0,0,0,1.89-2.15c0-1.59-.7-3.32-3.78-3.32a3.68,3.68,0,0,0-3.71,3.66v.08c0,1.52.77,1.87,1.33,1.87a.82.82,0,0,0,.91-.71v-.05a.69.69,0,0,0-.49-.7.54.54,0,0,1-.42.56A.61.61,0,0,1,18.9,12a.71.71,0,0,1,.74-.69h0a1.23,1.23,0,0,1,1.19,1.25A1.34,1.34,0,0,1,19.64,14h-.25a1.84,1.84,0,0,1-1.85-1.59h-.07A1.86,1.86,0,0,1,15.54,14a1.32,1.32,0,0,1-1.4-1.24,1.26,1.26,0,0,1,0-.21,1.3,1.3,0,0,1,1.19-1.32.77.77,0,0,1,.77.76.61.61,0,0,1-.49.63.49.49,0,0,1-.42-.55h0a.67.67,0,0,0-.49.63.77.77,0,0,0,.7.83h.14c.63,0,1.4-.35,1.4-1.87a3.7,3.7,0,0,0-3.66-3.74h-.12c-3,0-3.71,1.73-3.71,3.25,0,1.73,1,2.22,1.89,2.22A1.55,1.55,0,0,0,13,11.92a1,1,0,0,0-.9-1.16H12a.86.86,0,0,1,.07.41.7.7,0,0,1-.56.82h-.14a.78.78,0,0,1-.72-.84.73.73,0,0,1,0-.13,1.13,1.13,0,0,1,1.22-1h0a1.85,1.85,0,0,1,1.68,1.94,2.21,2.21,0,0,1-2.31,2A2.55,2.55,0,0,1,8.82,11.3,4.74,4.74,0,0,1,9.1,9.57L9,9.5C7.35,11.09,5.39,14,2.73,14A2.51,2.51,0,0,1,0,11.71a2,2,0,0,1,0-.27A2.14,2.14,0,0,1,2,9.15h.34a1.56,1.56,0,0,1,1.61,1.46A1.06,1.06,0,0,1,3,11.78H2.94A.79.79,0,0,1,2.1,11v0a.62.62,0,0,1,.42-.69A.53.53,0,0,0,2,10,1.25,1.25,0,0,0,.7,11.44a1.88,1.88,0,0,0,1.82,1.94h.21c1.82,0,3-1.25,6.3-4.71L9,8.6A4.64,4.64,0,0,1,7.42,9a2.64,2.64,0,0,1,0-5.27,2,2,0,0,1,2.1,1.8,1,1,0,0,1-.87,1.17H8.47A.73.73,0,0,1,7.7,6S7.7,6,7.7,6a.7.7,0,0,1,.61-.78.68.68,0,0,1,.23,0,1.12,1.12,0,0,0-1.12-.76A1.84,1.84,0,0,0,5.6,6.29s0,.06,0,.09a1.81,1.81,0,0,0,1.61,2h.21A5.39,5.39,0,0,0,9.1,8a15.37,15.37,0,0,1,4.06-.84,4.64,4.64,0,0,1,4.34,3.19h0ZM13.16,3c1.47,0,2.94,2.91,2.94,4a.86.86,0,0,1-.07.41,4.13,4.13,0,0,0-1.68-1.59c-.91-.42-2.17-.69-2.17-1.73a1,1,0,0,1,1-1Zm5.67-.69a25.9,25.9,0,0,1-.91,3.53c-.14.69-.42,2.63-.42,2.63s-.28-1.94-.42-2.63a29.16,29.16,0,0,1-1-3.53c0-.84.21-2.29,1.4-2.29S18.83,1.46,18.83,2.3Zm1.68,3.53a3.62,3.62,0,0,0-1.68,1.52.86.86,0,0,1-.07-.41c0-1,1.47-4,2.94-4a1,1,0,0,1,1,1h0C22.68,5.07,21.42,5.34,20.51,5.83Z" transform="translate(0.01 -0.01)" opacity="0.2" style="isolation: isolate"/>
</symbol>
<symbol id="branding-refined" viewBox="0 0 123.23 125.46">
  <title>branding-small</title>
  <g id="magellan">
    <g>
      <path d="M21.59,101.26c-1,0-1.22.2-1.22,1.29V110c0,1.09.2,1.24,1.22,1.29v.3c-.47,0-1.22,0-1.91,0s-1.5,0-1.92,0v-.3c1,0,1.21-.2,1.21-1.29v-8l-3.62,9.69h-.24l-3.79-9.73v7.92c0,1.1.2,1.4,1.37,1.44v.3c-.36,0-1,0-1.53,0s-1.06,0-1.39,0v-.3c1,0,1.22-.34,1.22-1.44v-7.29c0-1.09-.2-1.25-1.22-1.29V101c.33,0,.89,0,1.39,0s1,0,1.28,0l3.3,8.7L19,101h.71c.69,0,1.44,0,1.91,0Z" transform="translate(-9.76 -9.87)" shape-rendering="optimizeQuality" fill="#fff"/>
      <path d="M37.15,110.32c.3.76.73.94,1,1v.3c-.41,0-1,0-1.61,0-.78,0-1.5,0-1.92,0v-.3c.73,0,1.06-.14,1.06-.56a2.05,2.05,0,0,0-.18-.7l-.92-2.46H31l-.62,1.59a3.54,3.54,0,0,0-.3,1.23c0,.65.45.88,1.31.9v.3c-.57,0-1.2,0-1.73,0a11.07,11.07,0,0,0-1.12,0v-.3c.39-.09.84-.4,1.18-1.3l3.54-9.09h.24Zm-4.32-7.54-1.72,4.47h3.41Z" transform="translate(-9.76 -9.87)" shape-rendering="optimizeQuality" fill="#fff"/>
      <path d="M52.71,101.72a.51.51,0,0,0,.3.15c.19,0,.32-.29.37-.92h.35c0,.73-.06,1.71-.06,3.45h-.35a4.64,4.64,0,0,0-.76-2.22A3.38,3.38,0,0,0,50,101c-2,0-3.31,2-3.31,5.27,0,3.6,1.13,5.21,3.58,5.21a2.75,2.75,0,0,0,1.56-.47.81.81,0,0,0,.43-.82v-1.44c0-1.22-.26-1.39-1.52-1.44V107c.53,0,1.45.05,2.12.05s1.2,0,1.56-.05v.3c-.66.05-.76.18-.76,1.29v3h-.3c0-.34-.15-.86-.41-.86s-.19,0-.49.26a3.69,3.69,0,0,1-2.35.81c-3.11,0-4.92-2-4.92-5.34,0-3.5,2-5.71,4.84-5.71A4.17,4.17,0,0,1,52.71,101.72Z" transform="translate(-9.76 -9.87)" shape-rendering="optimizeQuality" fill="#fff"/>
      <path d="M69.76,111.58c-1,0-2.44,0-3.44,0s-2.88,0-4.36,0v-.3c1,0,1.22-.2,1.22-1.29v-7.44c0-1.09-.2-1.25-1.22-1.29V101c1.48,0,3.46,0,4.36,0s2.21,0,3.14,0c-.07.7-.1,1.43-.1,1.77a8.08,8.08,0,0,0,0,.93h-.34c-.2-1.77-.43-2.36-2-2.36H65.79c-1,0-1.22.15-1.22,1.25v3.54h1c1.31,0,1.28-1.26,1.39-2h.34c0,.64-.05,1.07-.05,1.41s0,.5,0,.72c0,.49,0,1,.09,2.13H67c-.12-1-.13-2-1.44-2h-1V110c0,1.09.2,1.24,1.22,1.24h1.1c1.88,0,2.25-.67,2.47-2.66h.35c0,.27,0,.67,0,1.08S69.68,110.82,69.76,111.58Z" transform="translate(-9.76 -9.87)" shape-rendering="optimizeQuality" fill="#fff"/>
      <path d="M81.34,101.26c-1,0-1.22.2-1.22,1.29V110c0,1.09.2,1.24,1.22,1.24h1.1c1.88,0,2.25-.72,2.47-2.8h.34c0,.31,0,.75,0,1.23s0,1.16.1,1.92c-1,0-2.44,0-3.44,0s-2.88,0-4.36,0v-.3c1,0,1.22-.2,1.22-1.29v-7.44c0-1.09-.2-1.25-1.22-1.29V101c.42,0,1.15,0,1.92,0s1.45,0,1.91,0v.3Z" transform="translate(-9.76 -9.87)" shape-rendering="optimizeQuality" fill="#fff"/>
      <path d="M96.58,101.26c-1,0-1.22.2-1.22,1.29V110c0,1.09.2,1.24,1.22,1.24h1.1c1.88,0,2.25-.72,2.47-2.8h.34c0,.31,0,.75,0,1.23s0,1.16.1,1.92c-1,0-2.44,0-3.44,0s-2.88,0-4.36,0v-.3c1,0,1.22-.2,1.22-1.29v-7.44c0-1.09-.2-1.25-1.22-1.29V101c.42,0,1.15,0,1.92,0s1.45,0,1.91,0Z" transform="translate(-9.76 -9.87)" shape-rendering="optimizeQuality" fill="#fff"/>
      <path d="M115.88,110.32c.3.76.73.94,1,1v.3c-.41,0-1,0-1.62,0-.78,0-1.5,0-1.92,0v-.3c.73,0,1.06-.14,1.06-.56a2.06,2.06,0,0,0-.18-.7l-.92-2.46h-3.63l-.62,1.59a3.52,3.52,0,0,0-.3,1.23c0,.65.45.88,1.31.9v.3c-.57,0-1.2,0-1.73,0a11.07,11.07,0,0,0-1.12,0v-.3c.39-.09.84-.4,1.18-1.3l3.54-9.09h.24Zm-4.32-7.54-1.72,4.47h3.41Z" transform="translate(-9.76 -9.87)" shape-rendering="optimizeQuality" fill="#fff"/>
      <path d="M133,101.26c-1,0-1.22.34-1.22,1.44v9h-.34l-6.31-9.73v7.92c0,1.1.2,1.4,1.37,1.44v.3c-.36,0-1,0-1.53,0s-1.06,0-1.39,0v-.3c1,0,1.22-.34,1.22-1.44v-7.29c0-1.09-.2-1.25-1.22-1.29V101c.33,0,.89,0,1.39,0s.84,0,1.17,0l5.31,8.16V102.7c0-1.1-.19-1.4-1.37-1.44V101c.36,0,1,0,1.53,0s1.06,0,1.39,0v.3Z" transform="translate(-9.76 -9.87)" shape-rendering="optimizeQuality" fill="#fff"/>
    </g>
  </g>
  <g id="media">
    <g>
      <path d="M53.85,127.71c-.75,0-.89.14-.89.95v5.46c0,.8.15.91.89.95v.22c-.34,0-.89,0-1.4,0s-1.1,0-1.41,0v-.22c.75,0,.89-.15.89-.95v-5.89l-2.66,7.11h-.18l-2.78-7.14V134c0,.81.15,1,1,1.06v.22c-.26,0-.75,0-1.13,0s-.78,0-1,0v-.22c.75,0,.89-.25.89-1.06v-5.34c0-.8-.15-.91-.89-.95v-.22c.24,0,.65,0,1,0s.7,0,.94,0l2.42,6.38,2.37-6.35h.52c.51,0,1.06,0,1.4,0Z" transform="translate(-9.76 -9.87)" fill="#fff"/>
      <path d="M65.19,135.28c-.75,0-1.79,0-2.53,0s-2.12,0-3.2,0v-.22c.75,0,.89-.15.89-.95v-5.46c0-.8-.15-.91-.89-.95v-.22c1.08,0,2.54,0,3.2,0s1.62,0,2.31,0c-.05.52-.08,1-.08,1.3a5.93,5.93,0,0,0,0,.68h-.25c-.15-1.3-.31-1.73-1.48-1.73h-.92c-.75,0-.89.11-.89.91v2.59h.73c1,0,.94-.92,1-1.45h.25c0,.47,0,.78,0,1s0,.37,0,.53c0,.36,0,.72.06,1.56h-.25c-.09-.7-.1-1.46-1.06-1.46h-.73v2.64c0,.8.15.91.89.91h.81c1.38,0,1.65-.49,1.81-1.95h.25c0,.2,0,.49,0,.79S65.13,134.72,65.19,135.28Z" transform="translate(-9.76 -9.87)" fill="#fff"/>
      <path d="M77.77,131.3a3.69,3.69,0,0,1-4,4l-1.55,0c-.52,0-1.06,0-1.37,0v-.22c.75,0,.89-.15.89-.95v-5.46c0-.8-.14-.91-.89-.95v-.22c.25,0,.67,0,1.08,0h.27l1.66,0C76.51,127.49,77.77,128.84,77.77,131.3Zm-5-2.66v5.5c0,.77.15.95.83.95,2.4,0,3.05-1.34,3.05-3.74s-.78-3.65-3.06-3.65C72.93,127.69,72.78,127.88,72.78,128.63Z" transform="translate(-9.76 -9.87)" fill="#fff"/>
      <path d="M86.25,127.71c-.75,0-.89.14-.89.95v5.46c0,.8.15.91.89.95v.22c-.34,0-.89,0-1.4,0s-1.1,0-1.41,0v-.22c.75,0,.89-.15.89-.95v-5.46c0-.8-.15-.91-.89-.95v-.22c.31,0,.84,0,1.41,0s1.06,0,1.4,0Z" transform="translate(-9.76 -9.87)" fill="#fff"/>
      <path d="M97.65,134.35c.22.56.53.69.76.7v.22c-.3,0-.76,0-1.19,0s-1.1,0-1.41,0v-.22c.53,0,.78-.1.78-.41a1.51,1.51,0,0,0-.13-.52l-.68-1.8H93.13l-.45,1.17a2.58,2.58,0,0,0-.22.9c0,.48.33.64,1,.66v.22c-.42,0-.88,0-1.27,0a8.13,8.13,0,0,0-.82,0v-.22c.29-.06.61-.3.87-1l2.6-6.67H95Zm-3.17-5.53-1.27,3.28h2.5Z" transform="translate(-9.76 -9.87)" fill="#fff"/>
    </g>
  </g>
  <g id="MLL">
    <path d="M121,74.35c-6.62-.28-7.91-1.24-7.91-8.1V19.5c0-6.86,1.29-7.82,7.91-8.1l-.29-1.51H70.18c-5.93,0-14.54,0-20.28,0s-19.12,0-28,0l-.29,1.59c6.62.28,7.91,1.24,7.91,8.1V66.33c0,6.86-1.29,7.82-7.91,8.1l-.47,1.72c2.72,0,7.78,0,12.83,0,4.48,0,9.8,0,12.83,0l-.32-1.72c-6.62-.28-7.91-1.24-7.91-8.1V19.58c0-6.86,1.29-7.82,7.91-7.82h7.14C65.81,11.76,68,15.92,69.43,29H73.2C74.58,15.92,76.82,11.68,89,11.68h7.15c6.62,0,7.91,1,7.91,7.82V66.25c0,6.86-1.29,7.82-7.91,8.1l-.32,1.8c3,0,8.35,0,12.83,0,5,0,10.09,0,12.83,0Z" transform="translate(-9.76 -9.87)" fill="#fff"/>
  </g>
</symbol><symbol id="double-tick-indicator" viewBox="0 0 594.15 341.7">
  <title>double-tick-indicator</title>
  <path id="double-tick-indicator-body" d="M448.8,161.92l-35.7-35.7L252.45,286.87l35.7,35.7Zm107.1-35.7L288.15,396.52,181,289.42l-35.7,35.7,142.8,142.8,306-306ZM0,325.12l142.8,142.8,35.7-35.7L35.7,289.42Z" transform="translate(0 -126.22)"/>
</symbol>
<symbol id="branding-symbol" viewBox="0 0 123.23 125.46">
  <title>branding-small</title>
  <g id="MLL">
    <path d="M121,74.35c-6.62-.28-7.91-1.24-7.91-8.1V19.5c0-6.86,1.29-7.82,7.91-8.1l-.29-1.51H70.18c-5.93,0-14.54,0-20.28,0s-19.12,0-28,0l-.29,1.59c6.62.28,7.91,1.24,7.91,8.1V66.33c0,6.86-1.29,7.82-7.91,8.1l-.47,1.72c2.72,0,7.78,0,12.83,0,4.48,0,9.8,0,12.83,0l-.32-1.72c-6.62-.28-7.91-1.24-7.91-8.1V19.58c0-6.86,1.29-7.82,7.91-7.82h7.14C65.81,11.76,68,15.92,69.43,29H73.2C74.58,15.92,76.82,11.68,89,11.68h7.15c6.62,0,7.91,1,7.91,7.82V66.25c0,6.86-1.29,7.82-7.91,8.1l-.32,1.8c3,0,8.35,0,12.83,0,5,0,10.09,0,12.83,0Z" transform="translate(-9.76 -9.87)"/>
  </g>
</symbol>
<symbol id="double-tick-indicator" viewBox="0 0 594.15 341.7">
  <title>double-tick-indicator</title>
  <path id="double-tick-indicator-body" d="M448.8,161.92l-35.7-35.7L252.45,286.87l35.7,35.7Zm107.1-35.7L288.15,396.52,181,289.42l-35.7,35.7,142.8,142.8,306-306ZM0,325.12l142.8,142.8,35.7-35.7L35.7,289.42Z" transform="translate(0 -126.22)"/>
</symbol>
<symbol id="backend" viewBox="0 0 500.2 500.2"><title>backend</title><path id="backend-middle" d="M159 152.9h194.4" fill="none" stroke="#3c3c3c" stroke-miterlimit="10" stroke-width="30" opacity=".8" style="isolation:isolate"/><path id="backend-frame" d="M14 14h472.2v472.2H14z" fill="none" stroke="#3c3c3c" stroke-miterlimit="10" stroke-width="28"/></symbol><symbol id="bulb" viewBox="0 0 50 54"><title>bulb</title><path id="bulb-body" d="M25 8a17 17 0 0 0-6 32.9V50a1 1 0 0 0 1 1h1v2a1 1 0 0 0 1 1h6a1 1 0 0 0 1-1v-2h1a1 1 0 0 0 1-1v-9.1A17 17 0 0 0 25 8zm3 41a1 1 0 0 0-1 1v2h-4v-2a1 1 0 0 0-1-1h-1v-5h8v5zm1.69-9.76a1 1 0 0 0-.69 1V42h-8v-1.81a1 1 0 0 0-.69-1 15 15 0 1 1 9.38 0z"/><path d="M25 6a1 1 0 0 0 1-1V1a1 1 0 0 0-2 0v4a1 1 0 0 0 1 1zM49 24h-4a1 1 0 0 0 0 2h4a1 1 0 0 0 0-2zM5 24H1a1 1 0 0 0 0 2h4a1 1 0 0 0 0-2zM41.26 7.32l-2.83 2.83a1 1 0 1 0 1.41 1.41l2.83-2.83a1 1 0 1 0-1.41-1.41zM10.15 38.44l-2.83 2.82a1 1 0 1 0 1.41 1.41l2.83-2.83a1 1 0 0 0-1.41-1.41zM39.85 38.44a1 1 0 1 0-1.41 1.41l2.83 2.83a1 1 0 0 0 1.41-1.41zM10.15 11.56a1 1 0 0 0 1.41-1.41L8.74 7.32a1 1 0 1 0-1.42 1.42zM25 13a12 12 0 0 0-12 12 1 1 0 0 0 2 0 10 10 0 0 1 10-10 1 1 0 0 0 0-2z"/></symbol><symbol id="clock" viewBox="0 0 490 490"><title>clock</title><path id="clock-body" d="M256 501a245 245 0 1 1 245-245 244.76 244.76 0 0 1-245 245zm0-469.1A223.68 223.68 0 0 0 31.9 256C31.9 380.1 133 480.1 256 480.1c124.1 0 224.1-101.1 224.1-224.1A223.68 223.68 0 0 0 256 31.9z" transform="translate(-11 -11)"/><path id="clock-arrow" d="M255.4 255.4H122v-20.8h112.6V54.2h20.8v201.2z"/></symbol><symbol id="send-form" viewBox="0 0 46.56 22.05">
  <title>mail</title>
  <path d="M40.09,22h-26A2.07,2.07,0,0,1,12,19.49L15.52,2.36A3.08,3.08,0,0,1,18.41,0h26a2.12,2.12,0,0,1,1.68.76,2.11,2.11,0,0,1,.4,1.8L43,19.69A3.08,3.08,0,0,1,40.09,22ZM18.41,1A2.07,2.07,0,0,0,16.5,2.56L13,19.69A1.07,1.07,0,0,0,14.08,21h26A2.07,2.07,0,0,0,42,19.49h0L45.53,2.36a1.14,1.14,0,0,0-.2-1A1.13,1.13,0,0,0,44.42,1Z"/>
  <path d="M29,13.54a2.8,2.8,0,0,1-2-.84L17.06,2.29a.5.5,0,1,1,.72-.69L27.66,12a1.84,1.84,0,0,0,2.33.21L44.53,1.54a.5.5,0,0,1,.59.81L30.58,13A2.73,2.73,0,0,1,29,13.54Z"/>
  <path d="M12.08,3.74H5.5a.5.5,0,0,1,0-1h6.58a.5.5,0,0,1,0,1Z"/>
  <path d="M10.75,10.41H.5a.5.5,0,1,1,0-1H10.75a.5.5,0,1,1,0,1Z"/>
  <path d="M9.08,16.41h-5a.5.5,0,0,1,0-1h5a.5.5,0,0,1,0,1Z"/>
</symbol><symbol id="cloud" viewBox="0 0 60 50"><title>cloud</title><path id="cloud-body" d="M51 21.19A17.12 17.12 0 0 0 34.08 5a17.63 17.63 0 0 0-13.95 7l-.23-.1-.6-.27-.3-.12-.6-.19-.4-.09c-.22-.05-.44-.09-.67-.12h-.32A8.81 8.81 0 0 0 16 11a9 9 0 0 0-9 9v.38a13.83 13.83 0 0 0-7 11.77A12.86 12.86 0 0 0 12.85 45H18a1 1 0 0 0 0-2h-5.16A10.86 10.86 0 0 1 2 32.15 11.89 11.89 0 0 1 8.43 21.9l.57-.27V21v-.74-.25a7 7 0 0 1 7.92-6.93h.23a7 7 0 0 1 .79.18h.11a7 7 0 0 1 .83.32l.21.1a6.91 6.91 0 0 1 .7.4A7 7 0 0 1 23 20a1 1 0 1 0 2 0 9 9 0 0 0-3.2-6.87A15.84 15.84 0 0 1 34.08 7a15.1 15.1 0 0 1 14.85 13.89 19.1 19.1 0 0 0-4.08.12A1 1 0 0 0 45 23h.15a18.44 18.44 0 0 1 4.68 0A10.25 10.25 0 0 1 58 33a10 10 0 0 1-10 10h-4a1 1 0 0 0 0 2h4a12 12 0 0 0 12-12 12.31 12.31 0 0 0-9-11.81z" transform="translate(0 -5)"/><path id="cloud-arrow" d="M41 43a1 1 0 0 0-1 1 9 9 0 1 1-9-9 8.67 8.67 0 0 1 7.31 4H32a1 1 0 0 0 0 2h8a1 1 0 0 0 .21 0 1.08 1.08 0 0 0 .18 0l.09-.06a.63.63 0 0 0 .33-.31 1 1 0 0 0 .1-.17 1 1 0 0 0 .05-.26A1.09 1.09 0 0 0 41 40v-8a1 1 0 0 0-2 0v4.6a10.6 10.6 0 0 0-8-3.6 11 11 0 1 0 11 11 1 1 0 0 0-1-1z" transform="translate(0 -5)"/></symbol><symbol id="desktop" viewBox="0 0 64.06 45.5"><title>desktop</title><path id="desktop-frame" stroke-width="6" d="M104.13 246.75H40.06v-39.19h64.06v39.19zm-63.06-1h62.06v-37.19H41.06v37.19z" transform="translate(-40.06 -207.56)"/><path id="desktop-stand" d="M25.38 44.5h14v1h-14z"/></symbol><symbol id="dot" viewBox="0 0 17 17"><title>dot</title><circle id="dot-body" cx="8.5" cy="8.5" r="8.5"/></symbol><symbol id="dribbble" viewBox="0 0 438.53 438.53"><title>dribbble</title><path id="dribbble-body" d="M409.13 109.2a218.35 218.35 0 0 0-79.8-79.8Q278.94 0 219.27 0T109.21 29.41a218.29 218.29 0 0 0-79.8 79.8Q0 159.6 0 219.27t29.41 110.06a218.35 218.35 0 0 0 79.8 79.8q50.4 29.41 110.06 29.41t110.07-29.41a218.29 218.29 0 0 0 79.8-79.8q29.4-50.39 29.4-110.06T409.13 109.2zM219.27 32q70.8 0 123.62 46.82l-3.57 5q-2.14 3-10.7 11.57a183.51 183.51 0 0 1-18.7 16.27 250.48 250.48 0 0 1-27.55 17.56 265 265 0 0 1-37.12 17.28Q212.42 85.93 175 37.4a188.88 188.88 0 0 1 44.27-5.4zM72.52 103.06A184.76 184.76 0 0 1 139.33 50q35.4 47.07 69.67 107.88a677.32 677.32 0 0 1-173 22.84 185.11 185.11 0 0 1 36.52-77.66zm-28 183.73A183.71 183.71 0 0 1 32 219.27a46.52 46.52 0 0 1 .29-6q103.36 0 192.15-26.55 9.14 17.7 15.13 31.69a23.09 23.09 0 0 1-3.71 1.28c-1.72.48-3 .81-3.72 1l-10.56 3.71q-10.85 4-28.41 13.7t-37.26 23.13q-19.7 13.42-40.68 35.55a239.31 239.31 0 0 0-35.26 47.53 187.5 187.5 0 0 1-35.43-57.52zm174.75 119.77q-66.81 0-119.34-42.83l4.28 3.14q10-22 29.41-42.26t37.4-32.7a368.56 368.56 0 0 1 39.12-23.41q21.13-11 28.83-14t12.28-4.72l.57-.29h.57q28 73.37 40 142.18a187.2 187.2 0 0 1-73.12 14.89zm157.61-86.08a187.1 187.1 0 0 1-52.82 54.1 804.41 804.41 0 0 0-36.55-133.9q56.82-8.86 116.77 8.27a184.77 184.77 0 0 1-27.4 71.53zm26.83-103.78q-2.85-.57-7.14-1.28l-10.42-1.71q-6.13-1-13.7-1.85t-16.14-1.57q-8.56-.72-18.27-1.14t-19.7-.43q-10 0-21 .57t-21.27 2a33.82 33.82 0 0 1-2.14-4.71c-.86-2.19-1.48-3.85-1.85-5q-5.43-12-12.57-27.12A293 293 0 0 0 297.08 156a291.8 291.8 0 0 0 28.54-18.56 237.32 237.32 0 0 0 20.27-17.28 164.78 164.78 0 0 0 12.42-12.7q2.86-3.58 5.42-7l.29-.29q41.69 50.83 42.54 117.1z"/></symbol><symbol id="form" viewBox="0 0 458.81 484.3"><title>form</title><path d="M0 0h458.81v25.49H0z" id="form-top-top"/><path d="M0 76.47h458.81v25.49H0z" id="form-top-bottom"/><path d="M0 135.95h458.81v25.49H0z" id="form-middle-top"/><path d="M0 212.41h458.81v25.49H0z" id="form-middle-bottom"/><path d="M0 271.89h458.81v25.49H0z" id="form-bottom-top"/><path d="M0 458.81h458.81v25.49H0z" id="form-bottom-bottom"/><path d="M433.32 271.89h25.49V484.3h-25.49z" id="form-bottom-right"/><path d="M0 271.89h25.49V484.3H0z" id="form-bottom-left"/><path d="M433.32 135.95h25.49v101.96h-25.49z" id="form-middle-right"/><path d="M0 135.95h25.49v101.96H0z" id="form-middle-left"/><path d="M433.32 0h25.49v101.96h-25.49z" id="form-top-right"/><path d="M0 0h25.49v101.96H0z" id="form-top-left"/></symbol><symbol id="frontend" viewBox="0 0 495.7 353.25"><title>frontend</title><path id="frontend-stand" d="M187.85 344.75h119.7" fill="none" stroke="#3c3c3c" stroke-miterlimit="10" stroke-width="17" opacity=".8" style="isolation:isolate"/><path id="frontend-frame" d="M8.5 8.5h478.7v290.6H8.5z" fill="none" stroke="#3c3c3c" stroke-miterlimit="10" stroke-width="17"/></symbol><symbol id="github" viewBox="0 0 438.55 427.82"><title>github</title><path id="github-body" d="M409.13 114.57a218.32 218.32 0 0 0-79.8-79.8Q278.94 5.36 219.27 5.36T109.21 34.77a218.29 218.29 0 0 0-79.8 79.8Q0 165 0 224.63q0 71.67 41.83 128.91t108.06 79.23q7.71 1.43 11.42-2a11.17 11.17 0 0 0 3.69-8.57q0-.86-.14-15.42t-.14-25.41l-6.57 1.14a83.77 83.77 0 0 1-15.85 1 120.73 120.73 0 0 1-19.84-2 44.34 44.34 0 0 1-19.11-8.51 36.23 36.23 0 0 1-12.56-17.6l-2.86-6.57a71.34 71.34 0 0 0-9-14.56q-6.14-8-12.42-10.85l-2-1.43a21 21 0 0 1-3.71-3.43 15.66 15.66 0 0 1-2.57-4q-.86-2 1.43-3.29C61.2 310.42 64 310 68 310l5.71.85q5.71 1.14 14.13 6.85a46.08 46.08 0 0 1 13.85 14.84q6.57 11.71 15.85 17.85t18.7 6.14a81.19 81.19 0 0 0 16.27-1.42 56.78 56.78 0 0 0 12.85-4.29q2.57-19.14 14-29.41a195.49 195.49 0 0 1-29.36-5.13 116.52 116.52 0 0 1-26.83-11.14 76.86 76.86 0 0 1-23-19.13q-9.14-11.42-15-30t-5.8-42.81q0-34.55 22.56-58.82-10.57-26 2-58.24 8.28-2.57 24.55 3.85t23.84 11q7.57 4.56 12.13 7.71a206.2 206.2 0 0 1 109.64 0l10.85-6.85a153.65 153.65 0 0 1 26.26-12.56q15.13-5.71 23.13-3.14 12.84 32.26 2.28 58.24 22.55 24.27 22.56 58.82 0 24.27-5.85 43t-15.12 30a79.82 79.82 0 0 1-23.13 19 116.74 116.74 0 0 1-26.84 11.14 195.29 195.29 0 0 1-29.23 5.07q14.8 12.84 14.81 40.58v60.2a11.37 11.37 0 0 0 3.57 8.56q3.57 3.42 11.28 2 66.24-22 108.07-79.23t41.83-128.91q-.03-59.62-29.43-110.05z" transform="translate(0 -5.36)"/></symbol><symbol id="glasses" viewBox="0 0 60 24"><title>glasses</title><path id="glasses-body" d="M59 28h-2.18a12 12 0 0 0-23.57-.42 4.85 4.85 0 0 0-6.49 0A12 12 0 0 0 3.05 29H1a1 1 0 0 0 0 2h2.05A12 12 0 0 0 27 30.33a3.8 3.8 0 0 1 3-2 3.8 3.8 0 0 1 3 2A12 12 0 0 0 57 30h2a1 1 0 0 0 0-2zM15.07 40a10 10 0 1 1 0-20 10 10 0 0 1 0 20zm30 0a10 10 0 1 1 0-20 10 10 0 0 1 0 20z" transform="translate(0 -18)"/></symbol><symbol id="icon-search" viewBox="0 0 511.89 512"><title>icon-search</title><path id="search-symbol" d="M507.52 485.89L383.09 361.47a217.43 217.43 0 0 0 53.58-143.16C436.68 97.86 338.7 0 218.37 0S.06 98 .06 218.31 98 436.62 218.37 436.62A217.43 217.43 0 0 0 361.52 383l124.43 124.46a15.43 15.43 0 0 0 10.78 4.54 15 15 0 0 0 10.78-4.54 15.35 15.35 0 0 0 .01-21.57zM30.6 218.31c0-103.54 84.24-187.66 187.66-187.66s187.66 84.24 187.66 187.66-84.13 187.77-187.67 187.77S30.6 321.84 30.6 218.31z" transform="translate(-.06)"/></symbol><symbol id="instagram" viewBox="0 0 169.06 169.06"><title>instagram</title><path id="instagram-body" d="M122.41 0H46.65A46.71 46.71 0 0 0 0 46.65v75.75a46.71 46.71 0 0 0 46.65 46.65h75.75a46.71 46.71 0 0 0 46.66-46.65V46.65A46.71 46.71 0 0 0 122.41 0zm31.66 122.41a31.69 31.69 0 0 1-31.66 31.65H46.65A31.69 31.69 0 0 1 15 122.41V46.65A31.69 31.69 0 0 1 46.65 15h75.75a31.69 31.69 0 0 1 31.66 31.65v75.75z"/><path id="instagram-camera" d="M84.53 41a43.56 43.56 0 1 0 43.56 43.56A43.61 43.61 0 0 0 84.53 41zm0 72.12a28.56 28.56 0 1 1 28.56-28.56 28.59 28.59 0 0 1-28.56 28.53z"/><path id="instagram-lense" d="M129.92 28.25a11 11 0 1 0 7.78 3.22 11 11 0 0 0-7.78-3.22z"/></symbol><symbol id="letter" viewBox="0 0 489.52 300.39"><title>letter</title><path d="M122.38 44.5h16.69v94.57h-16.69z" id="letter-rect-right"/><path d="M50.06 44.5h16.69v94.57H50.06z" id="letter-rect-left"/><path d="M50.06 127.94h89v16.69h-89z" id="letter-rect-bottom"/><path d="M50.06 44.5h89v16.69h-89z" id="letter-rect-top"/><path d="M405.12 172.66c-11.52 8.9-18.54 8.9-30.06 0-17.28-13.34-34.78-13.34-52 0-12.29 9.49-18.27 8.25-28.95 0-8.55-6.61-16.81-9.93-25.08-10v17.44c4.67 0 9.35 2.2 14.92 6.51 17.49 13.51 31.76 13.51 49.26 0 11.12-8.59 20.61-8.59 31.73 0 17.42 13.45 33 13.45 50.37 0 6.41-4.95 10.89-7.14 15.59-6.59v-17.43c-8.3-.43-16.5 2.9-25.78 10.07z" id="letter-wave-top"/><path d="M405.12 222.67c-11.52 8.9-18.54 8.9-30.06 0-17.28-13.34-34.78-13.34-52 0-12.29 9.49-18.27 8.25-28.95 0-8.55-6.61-16.81-9.93-25.08-10v17.43c4.67 0 9.35 2.2 14.92 6.51 17.49 13.51 31.76 13.51 49.26 0 11.12-8.59 20.61-8.59 31.73 0 17.42 13.45 33 13.45 50.37 0 6.41-4.95 10.89-7.14 15.59-6.59V212.6c-8.3-.44-16.5 2.9-25.78 10.07z" id="letter-wave-bottom"/><path d="M5.56 0h478.4v16.69H5.56z" id="letter-top"/><path d="M5.56 283.7h478.4v16.69H5.56z" id="letter-bottom"/><path d="M0 0h16.69v300.39H0z" id="letter-left"/><path d="M472.84 0h16.69v300.39h-16.69z" id="letter-right"/></symbol><symbol id="logo-klein" viewBox="0 0 123.23 125.46"><title>logo-klein</title><g fill="#fff" id="logo-magellan"><path d="M20.6 104.26c-1 0-1.22.2-1.22 1.29V113c0 1.09.2 1.24 1.22 1.29v.3h-3.83v-.3c1 0 1.21-.2 1.21-1.29v-8l-3.62 9.69h-.24l-3.79-9.73v7.92c0 1.1.2 1.4 1.37 1.44v.3H8.78v-.3c1 0 1.22-.34 1.22-1.44v-7.29c0-1.09-.2-1.25-1.22-1.29v-.3h2.67l3.3 8.7L18 104h2.62v.3zM36.15 113.32c.3.76.73.94 1 1v.3H33.62v-.3c.73 0 1.06-.14 1.06-.56a2.05 2.05 0 0 0-.18-.7l-.92-2.46H30l-.62 1.59a3.54 3.54 0 0 0-.3 1.23c0 .65.45.88 1.31.9v.3h-1.73a11.07 11.07 0 0 0-1.12 0v-.3c.39-.09.84-.4 1.18-1.3l3.54-9.09h.24zm-4.32-7.54l-1.72 4.47h3.41zM51.71 104.72a.51.51 0 0 0 .3.15c.19 0 .32-.29.37-.92h.35c0 .73-.06 1.71-.06 3.45h-.35a4.64 4.64 0 0 0-.76-2.22A3.38 3.38 0 0 0 49 104c-2 0-3.31 2-3.31 5.27 0 3.6 1.13 5.21 3.58 5.21a2.75 2.75 0 0 0 1.56-.47.81.81 0 0 0 .43-.82v-1.44c0-1.22-.26-1.39-1.52-1.44V110c.53 0 1.45.05 2.12.05s1.2 0 1.56-.05v.3c-.66.05-.76.18-.76 1.29v3h-.3c0-.34-.15-.86-.41-.86s-.19 0-.49.26a3.69 3.69 0 0 1-2.35.81c-3.11 0-4.92-2-4.92-5.34 0-3.5 2-5.71 4.84-5.71a4.17 4.17 0 0 1 2.68.97zM68.76 114.58H60.96v-.3c1 0 1.22-.2 1.22-1.29v-7.44c0-1.09-.2-1.25-1.22-1.29V104h7.5c-.07.7-.1 1.43-.1 1.77a8.08 8.08 0 0 0 0 .93h-.34c-.2-1.77-.43-2.36-2-2.36h-1.23c-1 0-1.22.15-1.22 1.25v3.54h1c1.31 0 1.28-1.26 1.39-2h.34c0 .64-.05 1.07-.05 1.41v.72c0 .49 0 1 .09 2.13H66c-.12-1-.13-2-1.44-2h-1V113c0 1.09.2 1.24 1.22 1.24h1.1c1.88 0 2.25-.67 2.47-2.66h.35v1.08c0 .41-.02 1.16.06 1.92zM80.34 104.26c-1 0-1.22.2-1.22 1.29V113c0 1.09.2 1.24 1.22 1.24h1.1c1.88 0 2.25-.72 2.47-2.8h.34v1.23c0 .48 0 1.16.1 1.92H76.55v-.3c1 0 1.22-.2 1.22-1.29v-7.44c0-1.09-.2-1.25-1.22-1.29V104h3.83v.3zM95.58 104.26c-1 0-1.22.2-1.22 1.29V113c0 1.09.2 1.24 1.22 1.24h1.1c1.88 0 2.25-.72 2.47-2.8h.34v1.23c0 .48 0 1.16.1 1.92H91.79v-.3c1 0 1.22-.2 1.22-1.29v-7.44c0-1.09-.2-1.25-1.22-1.29V104h3.83zM114.88 113.32c.3.76.73.94 1 1v.3h-3.54v-.3c.73 0 1.06-.14 1.06-.56a2.06 2.06 0 0 0-.18-.7l-.92-2.46h-3.63l-.62 1.59a3.52 3.52 0 0 0-.3 1.23c0 .65.45.88 1.31.9v.3h-1.73a11.07 11.07 0 0 0-1.12 0v-.3c.39-.09.84-.4 1.18-1.3l3.54-9.09h.24zm-4.32-7.54l-1.72 4.47h3.41zM132 104.26c-1 0-1.22.34-1.22 1.44v9h-.34l-6.31-9.73v7.92c0 1.1.2 1.4 1.37 1.44v.3h-2.92v-.3c1 0 1.22-.34 1.22-1.44v-7.29c0-1.09-.2-1.25-1.22-1.29V104H125.14l5.31 8.16v-6.46c0-1.1-.19-1.4-1.37-1.44V104H132v.3z" transform="translate(-8.76 -12.87)"/></g><g fill="#fff" id="logo-media"><path d="M52.85 130.71c-.75 0-.89.14-.89.95v5.46c0 .8.15.91.89.95v.22H50.04v-.22c.75 0 .89-.15.89-.95v-5.89l-2.66 7.11h-.18l-2.78-7.14v5.8c0 .81.15 1 1 1.06v.22h-2.13v-.22c.75 0 .89-.25.89-1.06v-5.34c0-.8-.15-.91-.89-.95v-.22h1.94l2.42 6.38 2.37-6.35h1.92zM64.19 138.28h-5.73v-.22c.75 0 .89-.15.89-.95v-5.46c0-.8-.15-.91-.89-.95v-.22h5.51c-.05.52-.08 1-.08 1.3a5.93 5.93 0 0 0 0 .68h-.25c-.15-1.3-.31-1.73-1.48-1.73h-.92c-.75 0-.89.11-.89.91v2.59h.73c1 0 .94-.92 1-1.45h.25v1.53c0 .36 0 .72.06 1.56h-.25c-.09-.7-.1-1.46-1.06-1.46h-.73v2.64c0 .8.15.91.89.91h.81c1.38 0 1.65-.49 1.81-1.95h.25v.79c0 .3.02.92.08 1.48zM76.77 134.3a3.69 3.69 0 0 1-4 4h-2.92v-.22c.75 0 .89-.15.89-.95v-5.46c0-.8-.15-.91-.89-.95v-.22h3.01c2.65-.01 3.91 1.34 3.91 3.8zm-5-2.66v5.5c0 .77.15.95.83.95 2.4 0 3.05-1.34 3.05-3.74s-.78-3.65-3.06-3.65c-.66-.01-.81.18-.81.93zM85.25 130.71c-.75 0-.89.14-.89.95v5.46c0 .8.15.91.89.95v.22H82.44v-.22c.75 0 .89-.15.89-.95v-5.46c0-.8-.15-.91-.89-.95v-.22H85.25zM96.65 137.35c.22.56.53.69.76.7v.22H94.81v-.22c.53 0 .78-.1.78-.41a1.51 1.51 0 0 0-.13-.52l-.68-1.8h-2.65l-.45 1.17a2.58 2.58 0 0 0-.22.9c0 .48.33.64 1 .66v.22h-1.27a8.13 8.13 0 0 0-.82 0v-.22c.29-.06.61-.3.87-1l2.6-6.67H94zm-3.17-5.53l-1.27 3.28h2.5z" transform="translate(-8.76 -12.87)"/></g><path d="M120 77.35c-6.62-.28-7.91-1.24-7.91-8.1V22.5c0-6.86 1.29-7.82 7.91-8.1l-.29-1.52H20.9l-.29 1.59c6.62.28 7.91 1.24 7.91 8.1v46.76c0 6.86-1.29 7.82-7.91 8.1l-.47 1.72H45.8l-.32-1.72c-6.62-.28-7.91-1.24-7.91-8.1V22.58c0-6.86 1.29-7.82 7.91-7.82h7.14C64.81 14.76 67 18.92 68.43 32h3.77c1.38-13.08 3.62-17.32 15.8-17.32h7.14c6.62 0 7.91 1 7.91 7.82v46.75c0 6.86-1.29 7.82-7.91 8.1l-.32 1.8h25.66z" transform="translate(-8.76 -12.87)" fill="#fff" id="logo-body"/></symbol><symbol id="logoklein" viewBox="0 0 141 151"><g fill="#FFF" id="magellan"><path d="M20.595 104.26c-1.02.043-1.218.197-1.218 1.289v7.441c0 1.091.198 1.244 1.218 1.29v.3c-.47-.03-1.218-.045-1.908-.045-.785 0-1.504.015-1.923.044v-.3c1.02-.045 1.211-.198 1.211-1.289v-8.027l-3.619 9.69h-.242l-3.787-9.735v7.918c0 1.099.198 1.398 1.365 1.443v.3c-.359-.03-1.02-.044-1.533-.044-.507 0-1.065.015-1.395.044v-.3c1.02-.045 1.218-.344 1.218-1.443v-7.287c0-1.092-.198-1.246-1.218-1.29v-.3c.33.03.888.044 1.395.044.44 0 .954-.015 1.284-.044l3.303 8.701 3.23-8.657h.711c.69 0 1.438-.015 1.908-.044v.3zM36.152 113.32c.301.761.726.944 1.042.96v.3a25.693 25.693 0 0 0-1.614-.045c-.778 0-1.498.015-1.923.044v-.3c.726-.029 1.064-.14 1.064-.556 0-.176-.059-.404-.177-.703l-.924-2.461h-3.626l-.617 1.588c-.205.521-.3.923-.3 1.23 0 .652.447.88 1.306.902v.3a35.52 35.52 0 0 0-1.732-.044c-.506 0-.822.015-1.123.044v-.3c.389-.088.837-.403 1.182-1.304l3.538-9.09h.242l3.662 9.434zm-4.323-7.537l-1.725 4.475h3.406l-1.68-4.475zM51.713 104.72c.118.096.205.155.301.155.191 0 .316-.286.374-.916h.345c-.044.732-.058 1.707-.058 3.45h-.345c-.14-.843-.287-1.648-.756-2.22-.588-.732-1.593-1.171-2.598-1.171-1.997 0-3.31 2.043-3.31 5.265 0 3.604 1.13 5.208 3.581 5.208.72 0 1.262-.257 1.564-.469.374-.256.433-.446.433-.82v-1.442c0-1.217-.258-1.393-1.52-1.444v-.3c.528.037 1.446.051 2.121.051.66 0 1.204-.014 1.564-.051v.3c-.66.051-.763.184-.763 1.29v2.973h-.302c-.014-.345-.154-.856-.41-.856-.118 0-.191.029-.493.256-.66.498-1.372.812-2.348.812-3.112 0-4.925-1.999-4.925-5.339 0-3.5 2.04-5.706 4.837-5.706 1.307 0 1.996.469 2.708.975zM68.758 114.58c-1.02-.045-2.437-.045-3.443-.045-.902 0-2.884 0-4.359.044v-.3c1.02-.045 1.218-.198 1.218-1.289v-7.441c0-1.092-.198-1.246-1.218-1.29v-.3c1.475.044 3.457.044 4.36.044.917 0 2.209 0 3.141-.044a19.442 19.442 0 0 0-.103 1.772c0 .359.015.704.044.931h-.345c-.198-1.773-.426-2.36-2.018-2.36h-1.248c-1.02 0-1.218.155-1.218 1.247v3.537h.998c1.307 0 1.277-1.26 1.394-1.978h.345c-.044.638-.051 1.07-.051 1.413 0 .28.007.499.007.72 0 .49.015.988.089 2.13h-.346c-.117-.959-.131-1.984-1.438-1.984h-.998v3.603c0 1.091.198 1.244 1.218 1.244h1.101c1.88 0 2.253-.673 2.466-2.658h.345c-.03.272-.044.666-.044 1.084 0 .373.03 1.157.103 1.92zM80.34 104.26c-1.02.043-1.218.197-1.218 1.289v7.441c0 1.091.198 1.244 1.218 1.244h1.101c1.88 0 2.253-.716 2.466-2.804h.345c-.03.314-.044.747-.044 1.23 0 .373.03 1.157.103 1.92-1.02-.045-2.437-.045-3.442-.045-.903 0-2.885 0-4.36.044v-.3c1.02-.045 1.219-.198 1.219-1.289v-7.441c0-1.092-.199-1.246-1.22-1.29v-.3c.42.03 1.146.044 1.924.044.69 0 1.446-.015 1.908-.044v.3zM95.578 104.26c-1.02.043-1.218.197-1.218 1.289v7.441c0 1.091.199 1.244 1.218 1.244h1.102c1.879 0 2.253-.716 2.466-2.804h.344c-.03.314-.044.747-.044 1.23 0 .373.03 1.157.103 1.92-1.02-.045-2.437-.045-3.442-.045-.903 0-2.884 0-4.36.044v-.3c1.02-.045 1.219-.198 1.219-1.289v-7.441c0-1.092-.198-1.246-1.219-1.29v-.3c.419.03 1.146.044 1.923.044.69 0 1.446-.015 1.908-.044v.3zM114.875 113.32c.3.761.727.944 1.042.96v.3a25.688 25.688 0 0 0-1.615-.045c-.778 0-1.497.015-1.923.044v-.3c.726-.029 1.064-.14 1.064-.556 0-.176-.058-.404-.175-.703l-.925-2.461h-3.626l-.616 1.588c-.206.521-.301.923-.301 1.23 0 .652.447.88 1.305.902v.3a35.482 35.482 0 0 0-1.731-.044c-.507 0-.822.015-1.123.044v-.3c.389-.088.837-.403 1.182-1.304l3.537-9.09h.242l3.663 9.434zm-4.323-7.537l-1.725 4.475h3.405l-1.68-4.475zM131.991 104.26c-1.02.043-1.218.344-1.218 1.442v8.95h-.344l-6.313-9.734v7.918c0 1.099.198 1.398 1.365 1.443v.3c-.359-.03-1.02-.044-1.534-.044-.506 0-1.063.015-1.394.044v-.3c1.02-.045 1.218-.344 1.218-1.443v-7.287c0-1.092-.198-1.246-1.218-1.29v-.3c.33.03.888.044 1.394.044.44 0 .845-.015 1.175-.044l5.307 8.16v-6.417c0-1.098-.192-1.4-1.366-1.442v-.301c.36.03 1.02.044 1.534.044.507 0 1.064-.015 1.394-.044v.3z"/></g><g fill="#FFF" id="media"><path d="M52.845 130.71c-.748.032-.894.145-.894.946v5.457c0 .8.146.912.894.946v.22a25.773 25.773 0 0 0-1.4-.033c-.576 0-1.104.01-1.411.032v-.22c.748-.033.888-.145.888-.945v-5.886l-2.655 7.105h-.178l-2.78-7.139V137c0 .806.146 1.025 1.003 1.059v.22a17.008 17.008 0 0 0-1.126-.033c-.372 0-.781.01-1.023.032v-.22c.748-.033.894-.252.894-1.058v-5.344c0-.8-.146-.914-.894-.945v-.22c.242.02.651.031 1.023.031.323 0 .7-.01.942-.032l2.424 6.381 2.37-6.349h.523c.506 0 1.055-.01 1.4-.032v.22zM64.187 138.278c-.749-.032-1.788-.032-2.526-.032-.663 0-2.117 0-3.2.032v-.22c.749-.033.894-.145.894-.945v-5.457c0-.8-.145-.914-.894-.945v-.22c1.083.031 2.537.031 3.2.031.673 0 1.621 0 2.305-.032a14.217 14.217 0 0 0-.075 1.3c0 .263.01.516.032.683h-.253c-.146-1.301-.313-1.73-1.482-1.73h-.915c-.749 0-.894.112-.894.913v2.594h.732c.96 0 .938-.924 1.024-1.45h.253a14.34 14.34 0 0 0-.038 1.036c0 .205.005.365.005.527 0 .36.011.725.065 1.563h-.253c-.086-.703-.097-1.455-1.056-1.455h-.732v2.642c0 .8.145.912.894.912h.808c1.379 0 1.653-.494 1.81-1.949h.253c-.021.2-.033.488-.033.795 0 .274.022.849.076 1.407zM76.772 134.299c0 2.394-1.454 3.98-3.99 3.98-.335 0-1.073-.033-1.547-.033-.517 0-1.061.01-1.368.032v-.22c.749-.033.894-.145.894-.945v-5.457c0-.8-.145-.914-.894-.945v-.22c.253.015.668.036 1.077.036.092 0 .178-.005.27-.005.506-.01 1.244-.032 1.664-.032 2.629 0 3.894 1.354 3.894 3.809zm-4.988-2.664v5.5c0 .767.146.945.83.945 2.403 0 3.054-1.344 3.054-3.738 0-2.466-.781-3.653-3.064-3.653-.674 0-.82.188-.82.946zM85.248 130.71c-.748.032-.893.145-.893.946v5.457c0 .8.145.912.893.946v.22a25.609 25.609 0 0 0-1.4-.033c-.57 0-1.104.01-1.411.032v-.22c.749-.033.894-.145.894-.945v-5.457c0-.8-.145-.914-.894-.945v-.22c.307.02.84.031 1.41.031.508 0 1.062-.01 1.401-.032v.22zM96.654 137.354c.221.56.534.693.765.705v.22a18.873 18.873 0 0 0-1.186-.033c-.57 0-1.098.01-1.41.032v-.22c.532-.02.78-.102.78-.408 0-.129-.042-.296-.128-.515l-.68-1.805h-2.66l-.452 1.165c-.152.382-.221.677-.221.902 0 .478.328.645.958.662v.22a26.06 26.06 0 0 0-1.27-.033c-.373 0-.604.01-.825.032v-.22c.285-.064.614-.295.867-.956l2.596-6.665h.178l2.688 6.917zm-3.173-5.526l-1.265 3.281h2.499l-1.234-3.28z"/></g><path fill-rule="evenodd" clip-rule="evenodd" fill="#FFF" d="M120.023 77.347c-6.62-.276-7.907-1.242-7.907-8.098V22.5c0-6.856 1.286-7.822 7.907-8.098l-.286-1.515H69.184v.012c-5.932.02-14.538-.028-20.282-.028-5.86 0-19.117.039-28.007.016l-.287 1.594c6.62.276 7.907 1.243 7.907 8.098v46.748c0 6.856-1.286 7.822-7.907 8.098l-.468 1.72c2.715.023 7.778 0 12.827 0 4.477 0 9.802-.023 12.827 0l-.322-1.72c-6.62-.276-7.907-1.242-7.907-8.098V22.58c0-6.855 1.286-7.822 7.907-7.822h7.145c12.194 0 14.43 4.158 15.812 17.271h3.773c1.381-13.113 3.618-17.35 15.812-17.35h7.145c6.62 0 7.907.966 7.907 7.822v46.748c0 6.856-1.286 7.822-7.907 8.098l-.321 1.8c2.953.022 8.349 0 12.826 0 5.05 0 10.088-.024 12.827 0l-.468-1.8z" id="MLL"/></symbol><symbol id="menu" viewBox="0 0 20 14"><title>menu</title><path id="menu-top" d="M0 0h20v3H0z"/><path id="menu-bottom" d="M0 11h20v3H0z"/></symbol><symbol id="pen" viewBox="0 0 55.25 55.25"><title>pen</title><path id="pen-body" d="M52.62 2.63a9 9 0 0 0-12.73 0L3.83 38.69v.06l-.06.08a1 1 0 0 0-.12.24v.08L0 54a1 1 0 0 0 0 .2 1 1 0 0 0 .06.33v.07a1 1 0 0 0 .2.3 1 1 0 0 0 .33.22 1 1 0 0 0 .38.08h.23l14.85-3.53h.18a1 1 0 0 0 .2-.12l.07-.05 36.12-36.14a9 9 0 0 0 0-12.73zM51.2 4a7 7 0 0 1 .65 9.14l-9.78-9.75A7 7 0 0 1 51.2 4zm-4.95 14.89L36.35 9l1.41-1.41 9.9 9.9zM5 50.29a1 1 0 0 0-1.41 0l-.8.71 2.55-10.68 4.42-.49-.56 5.12a1 1 0 0 0 0 .11 1 1 0 0 0 0 .11v.09a1 1 0 0 0 .05.17 1 1 0 0 0 .1.18l.1.13a1 1 0 0 0 .16.13l.14.08.25.05h.33l5.12-.57-.49 4.42L4.2 52.46l.8-.76a1 1 0 0 0 0-1.41zm12.55-5.48l22.34-22.38A1 1 0 0 0 38.47 21L16.1 43.39l-4.77.53.53-4.77 22.37-22.38a1 1 0 0 0-1.41-1.41L10.44 37.74l-3.18.35 27.68-27.68 9.9 9.9L17.16 48zm31.53-28.74l-9.9-9.9 1.42-1.42 9.9 9.9z"/></symbol><symbol id="performance" viewBox="0 0 388.75 446.65"><title>performance</title><path id="perf-1" d="M95.88 446.58v-132.3" fill="none" stroke="#3c3c3c" stroke-miterlimit="10" stroke-width="25" opacity=".8" style="isolation:isolate"/><path id="perf-2" d="M161.98 446.58v-215" fill="none" stroke="#3c3c3c" stroke-miterlimit="10" stroke-width="25" opacity=".8" style="isolation:isolate"/><path id="perf-3" d="M227.98 446.58v-99.2" fill="none" stroke="#3c3c3c" stroke-miterlimit="10" stroke-width="25" opacity=".8" style="isolation:isolate"/><path id="perf-4" d="M294.18 432.48v-159.5" fill="none" stroke="#3c3c3c" stroke-miterlimit="10" stroke-width="25" opacity=".8" style="isolation:isolate"/><path id="perf-frame" d="M12.38 12.38h364v421.9h-364z" fill="none" stroke="#3c3c3c" stroke-miterlimit="10" stroke-width="24.75"/></symbol><symbol id="phone" viewBox="0 0 321.17 431.36"><title>phone</title><path id="phone-body" d="M369.88 393.8l9.69-5.58-84.32-138.17 4.5-46.82L227.18 95l-1 .7-78.57 48L73.75 21.14 58.4 30l76.52 126.15-17.44 33.12L274.61 452.5l12.62-8.17zM136.55 186.65l12.54-23.13L221.94 119l58.83 87.74-3.77 47.4 78.08 128-75.18 46z" transform="translate(-58.4 -21.14)"/></symbol><symbol id="plane" viewBox="0 0 60.06 44.99"><title>plane</title><path id="plane-body" d="M59.84 7.9a1 1 0 0 0-.89-.35h-.22L.74 23.35a1 1 0 0 0 0 1.91l21.22 7L20 47.4a1 1 0 0 0 1.6.92l7.76-5.95 6.81 9.72a1 1 0 0 0 .82.43h.07a1 1 0 0 0 .82-.54L59.95 9a1 1 0 0 0-.11-1.1zm-6.94 3.34l-30 19.19-18.38-6zm-30.61 34l1.38-11.05 4.56 6.51zm14.58 4.31L24.42 31.81l32.1-20.51z" transform="translate(0 -7.54)"/></symbol><symbol id="search" viewBox="0 0 19.12 19.66"><title>search</title><circle id="search-glass" cx="11.34" cy="7.78" r="6.78" fill="none" stroke="#fff" stroke-miterlimit="10" stroke-width="2"/><path id="search-stick" transform="rotate(-45 3.666 16.382)" d="M-.24 15.1h8.89v2H-.24z"/></symbol><symbol id="seo" viewBox="0 0 487.2 370.6"><title>seo</title><path id="seo-4" d="M89.2 291.6h226.4" fill="none" stroke="#3c3c3c" stroke-miterlimit="10" stroke-width="20" opacity=".8" style="isolation:isolate"/><path id="seo-3" d="M89.2 229.9h144.1" fill="none" stroke="#3c3c3c" stroke-miterlimit="10" stroke-width="20" opacity=".8" style="isolation:isolate"/><path id="seo-2" d="M89.2 147.5h226.4" fill="none" stroke="#3c3c3c" stroke-miterlimit="10" stroke-width="20" opacity=".8" style="isolation:isolate"/><path id="seo-1" d="M89.2 85.8h144.1" fill="none" stroke="#3c3c3c" stroke-miterlimit="10" stroke-width="20" opacity=".8" style="isolation:isolate"/><path id="seo-frame" d="M10.3 10.3h466.6v350H10.3z" fill="none" stroke="#3c3c3c" stroke-miterlimit="10" stroke-width="20.6"/></symbol></svg>
