<svg xmlns="http://www.w3.org/2000/svg" width="127.91" height="79.18" viewBox="0 0 127.91 79.18">
  <defs>
    <style>
      .cls-1 {
        fill: #2d2f2f;
        fill-rule: evenodd;
      }
    </style>
  </defs>
  <path id="Aa_copy" data-name="Aa copy" class="cls-1" d="M1527.7,1398h12.32l7.7-19.25h37.07l7.81,19.25h12.32l-33.33-77.88h-9.57Zm23.76-28.49,14.74-35.75h0.22l14.52,35.75h-29.48Zm67.21-11.11c0.88-.66,1.8-1.36,2.75-2.09a17.646,17.646,0,0,1,3.19-1.92,21.87,21.87,0,0,1,3.91-1.38,20.119,20.119,0,0,1,5-.55,14.483,14.483,0,0,1,5.5.94,10.921,10.921,0,0,1,3.85,2.52,10.952,10.952,0,0,1,3.08,7.54v2.2h-7.26a63.63,63.63,0,0,0-11.16.93,30.089,30.089,0,0,0-9.13,3.08,17.035,17.035,0,0,0-6.16,5.56,14.98,14.98,0,0,0-2.26,8.47,15.259,15.259,0,0,0,1.43,6.77,14.283,14.283,0,0,0,3.91,4.89,16.891,16.891,0,0,0,5.77,2.97,23.989,23.989,0,0,0,6.93.99,24.642,24.642,0,0,0,10.45-2.09,18.945,18.945,0,0,0,7.81-7.15h0.22q0,3.96.33,7.92h8.8c-0.14-1.39-.25-2.86-0.33-4.4s-0.11-3.23-.11-5.06v-26.62a17.377,17.377,0,0,0-1.26-6.54,15.2,15.2,0,0,0-3.91-5.56,19.12,19.12,0,0,0-6.76-3.85,30.25,30.25,0,0,0-9.85-1.43,33,33,0,0,0-11,1.93,27.539,27.539,0,0,0-9.68,5.77Zm27.28,14.52v3.3a19.154,19.154,0,0,1-.77,5.34,13.755,13.755,0,0,1-2.53,4.89,12.977,12.977,0,0,1-4.62,3.58,15.944,15.944,0,0,1-6.93,1.37,14.791,14.791,0,0,1-8.19-1.98q-3.03-1.98-3.03-6.49a6.94,6.94,0,0,1,1.93-5.06,12.85,12.85,0,0,1,4.95-3.08,27.892,27.892,0,0,1,6.71-1.48,68.356,68.356,0,0,1,7.2-.39h5.28Z" transform="translate(-1527.72 -1320.13)"/>
</svg>
